<svg id="visual" viewBox="0 0 1920 1080" width="1920" height="1080" xmlns="http://www.w3.org/2000/svg" xmlns:xlink="http://www.w3.org/1999/xlink" version="1.1"><path d="M0 132L45.7 132.2C91.3 132.3 182.7 132.7 274.2 122.5C365.7 112.3 457.3 91.7 548.8 89.7C640.3 87.7 731.7 104.3 823 109.5C914.3 114.7 1005.7 108.3 1097 107.2C1188.3 106 1279.7 110 1371.2 117.5C1462.7 125 1554.3 136 1645.8 142.3C1737.3 148.7 1828.7 150.3 1874.3 151.2L1920 152L1920 0L1874.3 0C1828.7 0 1737.3 0 1645.8 0C1554.3 0 1462.7 0 1371.2 0C1279.7 0 1188.3 0 1097 0C1005.7 0 914.3 0 823 0C731.7 0 640.3 0 548.8 0C457.3 0 365.7 0 274.2 0C182.7 0 91.3 0 45.7 0L0 0Z" fill="#FEEAC2" stroke-linecap="round" stroke-linejoin="miter"></path></svg>