<svg id="visual" viewBox="0 0 900 600" width="900" height="600" xmlns="http://www.w3.org/2000/svg" xmlns:xlink="http://www.w3.org/1999/xlink" version="1.1"><g><g transform="translate(114 522)"><path d="M32.4 -25.3C40 -16.3 42.8 -2.9 40.1 9.2C37.4 21.4 29.1 32.4 18.3 37.4C7.5 42.4 -6 41.3 -16.5 35.7C-27 30.1 -34.6 19.9 -37 8.7C-39.3 -2.4 -36.3 -14.5 -29.2 -23.4C-22.2 -32.2 -11.1 -38 0.7 -38.5C12.4 -39 24.8 -34.3 32.4 -25.3Z" fill="none" stroke="#fcc497" stroke-width="2"></path></g><g transform="translate(260 319)"><path d="M23 -18.4C28.4 -11.6 30.4 -2.1 28.2 6.1C26.1 14.3 19.8 21.3 12.1 24.8C4.5 28.3 -4.7 28.5 -12 25C-19.4 21.4 -25 14.2 -26.6 6.3C-28.2 -1.6 -25.8 -10.2 -20.7 -16.9C-15.7 -23.7 -7.8 -28.7 0.5 -29.1C8.8 -29.5 17.6 -25.3 23 -18.4Z" fill="none" stroke="#fcc497" stroke-width="2"></path></g><g transform="translate(152 420)"><path d="M15.4 -11.9C19.3 -7.4 21.3 -1.1 20 4.5C18.6 10.1 14 14.8 8.6 17.1C3.2 19.4 -3 19.3 -8.2 16.9C-13.3 14.4 -17.4 9.7 -18.8 4.1C-20.1 -1.4 -18.9 -7.7 -15.3 -12.2C-11.7 -16.6 -5.9 -19.2 -0.1 -19.1C5.8 -19.1 11.5 -16.4 15.4 -11.9Z" fill="none" stroke="#fcc497" stroke-width="2"></path></g><g transform="translate(319 119)"><path d="M16.5 -13.4C20.4 -8.3 21.8 -1.5 20.5 5C19.3 11.4 15.3 17.5 9.7 20.2C4.1 23 -3.1 22.3 -9.4 19.3C-15.6 16.4 -20.9 11.2 -22.5 4.9C-24.2 -1.4 -22.2 -8.8 -17.9 -14C-13.5 -19.2 -6.8 -22.2 -0.2 -22C6.3 -21.9 12.6 -18.5 16.5 -13.4Z" fill="none" stroke="#fcc497" stroke-width="2"></path></g><g transform="translate(72 60)"><path d="M24.5 -19.1C30.3 -12.1 32.8 -2.1 30.7 7.1C28.7 16.2 22.2 24.5 14 28.1C5.7 31.8 -4.4 30.9 -12.6 26.7C-20.9 22.6 -27.3 15.1 -29.2 6.8C-31 -1.6 -28.2 -10.9 -22.5 -17.8C-16.9 -24.7 -8.5 -29.3 0.4 -29.6C9.3 -29.9 18.6 -26.1 24.5 -19.1Z" fill="none" stroke="#fcc497" stroke-width="2"></path></g><g transform="translate(719 252)"><path d="M24.7 -19.2C30.8 -12 33.7 -1.8 31.6 7C29.4 15.9 22.1 23.3 13.2 27.8C4.3 32.2 -6.3 33.6 -14.4 29.8C-22.4 25.9 -28 16.8 -29.7 7.3C-31.5 -2.2 -29.6 -12.1 -24 -19.2C-18.4 -26.2 -9.2 -30.5 0 -30.5C9.3 -30.5 18.6 -26.4 24.7 -19.2Z" fill="none" stroke="#fcc497" stroke-width="2"></path></g><g transform="translate(43 370)"><path d="M26.4 -21C32.8 -13.1 35.4 -2.2 33.1 7.6C30.9 17.4 23.8 26.1 14.8 30.2C5.8 34.4 -5.2 34 -14.1 29.6C-22.9 25.2 -29.6 16.7 -31.4 7.5C-33.2 -1.6 -30.1 -11.6 -24.1 -19.4C-18 -27.2 -9 -32.8 0.5 -33.2C10.1 -33.6 20.1 -28.8 26.4 -21Z" stroke="#fcc497" fill="none" stroke-width="2"></path></g><g transform="translate(603 323)"><path d="M26.6 -21.4C32.9 -13.4 35.2 -2.4 33 7.6C30.8 17.6 24 26.6 15.1 30.6C6.3 34.5 -4.6 33.4 -13.6 28.9C-22.6 24.3 -29.6 16.3 -31.9 7.1C-34.1 -2.2 -31.6 -12.7 -25.5 -20.7C-19.4 -28.7 -9.7 -34.2 0.2 -34.4C10.2 -34.6 20.4 -29.5 26.6 -21.4Z" stroke="#fcc497" fill="none" stroke-width="2"></path></g><g transform="translate(567 31)"><path d="M23.3 -18.3C28.9 -11.6 31.1 -2 29.1 6.6C27 15.2 20.8 22.7 12.8 26.7C4.8 30.6 -5.1 30.8 -13.1 27C-21.1 23.2 -27.3 15.4 -29.5 6.5C-31.7 -2.4 -29.9 -12.4 -24.3 -19.1C-18.7 -25.7 -9.4 -29.1 -0.2 -28.9C8.9 -28.7 17.8 -25 23.3 -18.3Z" stroke="#fcc497" fill="none" stroke-width="2"></path></g><g transform="translate(782 456)"><path d="M28.4 -22.7C35 -14.4 37.2 -2.7 34.6 7.5C31.9 17.8 24.5 26.5 14.8 31.4C5.2 36.3 -6.7 37.4 -16.5 33.1C-26.4 28.8 -34.2 19.2 -36.6 8.5C-38.9 -2.2 -35.8 -14.1 -28.7 -22.4C-21.7 -30.8 -10.9 -35.5 0 -35.6C10.9 -35.6 21.9 -30.9 28.4 -22.7Z" stroke="#fcc497" fill="none" stroke-width="2"></path></g><g transform="translate(537 487)"><path d="M25.1 -20.1C31 -12.7 33 -2.4 30.9 7.1C28.8 16.6 22.6 25.2 13.8 29.9C5 34.6 -6.2 35.5 -14.9 31.2C-23.5 26.9 -29.6 17.5 -31.3 7.7C-33.1 -2 -30.6 -12.2 -24.7 -19.7C-18.7 -27.1 -9.4 -31.8 0.1 -32C9.6 -32.1 19.3 -27.6 25.1 -20.1Z" stroke="#fcc497" fill="none" stroke-width="2"></path></g><g transform="translate(212 561)"><path d="M22.4 -18.1C27.7 -11.3 29.6 -2.1 27.7 6.5C25.9 15 20.3 22.8 12.8 26.2C5.3 29.7 -4.1 28.8 -11.6 24.9C-19.1 20.9 -24.7 13.9 -26.8 5.8C-28.8 -2.3 -27.4 -11.5 -22.4 -18.2C-17.3 -25 -8.7 -29.2 0 -29.1C8.6 -29.1 17.2 -24.8 22.4 -18.1Z" stroke="#fcc497" fill="none" stroke-width="2"></path></g><g transform="translate(418 581)"><path d="M15.9 -12.8C19.7 -7.9 21.2 -1.4 19.8 4.4C18.4 10.1 13.9 14.9 8.4 17.6C2.9 20.4 -3.8 21 -9.3 18.6C-14.8 16.2 -19.1 10.8 -20.4 4.7C-21.8 -1.3 -20.1 -8 -16.1 -12.8C-12.2 -17.7 -6.1 -20.8 0 -20.8C6 -20.7 12.1 -17.6 15.9 -12.8Z" stroke="#fcc497" fill="none" stroke-width="2"></path></g><g transform="translate(898 132)"><path d="M27.6 -21.7C33.8 -14.1 35.7 -2.8 33.1 7.1C30.5 17.1 23.4 25.5 14.3 30.1C5.2 34.7 -6.1 35.3 -15.2 31.1C-24.3 26.9 -31.3 17.8 -33.8 7.6C-36.2 -2.7 -34.1 -14.1 -27.7 -21.6C-21.3 -29.2 -10.7 -32.9 0 -32.9C10.6 -32.9 21.3 -29.2 27.6 -21.7Z" stroke="#fcc497" fill="none" stroke-width="2"></path></g><g transform="translate(497 338)"><path d="M29 -23.6C35.6 -14.9 37.5 -3 35 8C32.5 18.9 25.6 28.9 15.8 34.1C6.1 39.2 -6.6 39.6 -16.8 34.7C-26.9 29.9 -34.6 19.8 -36.8 8.8C-39 -2.2 -35.7 -14 -28.7 -22.8C-21.6 -31.5 -10.8 -37.2 0.2 -37.4C11.2 -37.5 22.5 -32.2 29 -23.6Z" stroke="#fcc497" fill="none" stroke-width="2"></path></g><g transform="translate(675 74)"><path d="M15.8 -12.8C19.6 -7.8 21.3 -1.3 20 4.8C18.8 10.8 14.7 16.3 9.1 19.1C3.5 21.8 -3.5 21.8 -8.8 18.9C-14.1 16.1 -17.8 10.5 -19.2 4.4C-20.6 -1.7 -19.7 -8.4 -16.2 -13.4C-12.6 -18.3 -6.3 -21.6 -0.2 -21.5C6 -21.4 11.9 -17.8 15.8 -12.8Z" stroke="#fcc497" fill="none" stroke-width="2"></path></g><g transform="translate(367 310)"><path d="M15.5 -12C19.4 -7.3 21.7 -0.9 20.5 4.9C19.4 10.7 14.8 16 9.2 18.5C3.6 20.9 -3 20.5 -8.5 17.8C-13.9 15.1 -18.1 10.1 -19.6 4.3C-21.1 -1.5 -19.8 -8.2 -16.1 -12.8C-12.4 -17.4 -6.2 -20 -0.2 -19.8C5.7 -19.6 11.5 -16.7 15.5 -12Z" stroke="#fcc497" fill="none" stroke-width="2"></path></g><g transform="translate(532 215)"><path d="M27.1 -21.7C33.6 -13.5 36.1 -2.3 33.8 7.6C31.4 17.6 24.2 26.4 14.9 30.8C5.6 35.3 -5.8 35.5 -15.2 31.1C-24.5 26.7 -31.9 17.8 -33.8 8.1C-35.8 -1.7 -32.4 -12.4 -25.9 -20.6C-19.3 -28.7 -9.7 -34.4 0.3 -34.6C10.3 -34.9 20.6 -29.8 27.1 -21.7Z" stroke="#fcc497" fill="none" stroke-width="2"></path></g><g transform="translate(322 493)"><path d="M27.4 -22.5C33.4 -14.2 34.9 -3 32.5 7.5C30.2 17.9 24.1 27.6 15.2 32C6.4 36.3 -5.1 35.4 -14.6 30.7C-24 26 -31.5 17.4 -33.5 7.8C-35.5 -1.7 -32.2 -12.4 -25.7 -20.7C-19.2 -29 -9.6 -35.1 0.5 -35.5C10.6 -35.9 21.3 -30.7 27.4 -22.5Z" stroke="#fcc497" fill="none" stroke-width="2"></path></g><g transform="translate(824 279)"><path d="M21.5 -17.6C26.4 -10.9 28.2 -2 26.5 6.5C24.9 14.9 20 23 12.7 26.6C5.5 30.1 -4 29 -11.5 25C-19 20.9 -24.6 13.9 -26.8 5.7C-28.9 -2.4 -27.7 -11.8 -22.7 -18.5C-17.6 -25.2 -8.8 -29.3 -0.3 -29C8.2 -28.8 16.5 -24.3 21.5 -17.6Z" stroke="#fcc497" fill="none" stroke-width="2"></path></g><g transform="translate(220 104)"><path d="M25.8 -20.3C31.9 -12.9 34.3 -2.3 31.9 6.9C29.5 16 22.3 23.7 13.4 28.1C4.4 32.6 -6.2 33.8 -14.6 29.9C-23.1 26.1 -29.2 17.1 -31 7.5C-32.8 -2 -30.3 -12 -24.4 -19.4C-18.5 -26.7 -9.2 -31.4 0.3 -31.6C9.8 -31.8 19.7 -27.7 25.8 -20.3Z" stroke="#fcc497" fill="none" stroke-width="2"></path></g><g transform="translate(118 220)"><path d="M16.7 -13.5C20.4 -8.7 21.3 -1.8 19.7 4.1C18 10 13.8 15 8.5 17.4C3.2 19.9 -3.2 19.8 -8.5 17.4C-13.8 14.9 -18 10 -19.4 4.3C-20.8 -1.3 -19.3 -7.8 -15.6 -12.6C-11.9 -17.4 -5.9 -20.6 0.3 -20.8C6.5 -21 13 -18.3 16.7 -13.5Z" stroke="#fcc497" fill="none" stroke-width="2"></path></g><g transform="translate(697 517)"><path d="M24.1 -19.4C30 -11.9 32.7 -1.9 30.8 7.4C29 16.6 22.6 25.2 14.3 28.9C5.9 32.7 -4.4 31.6 -12.7 27.3C-21 22.9 -27.3 15.3 -29.6 6.4C-31.9 -2.5 -30.2 -12.6 -24.6 -20.2C-19.1 -27.7 -9.5 -32.5 -0.2 -32.4C9.1 -32.2 18.3 -27 24.1 -19.4Z" stroke="#fcc497" fill="none" stroke-width="2"></path></g><g transform="translate(741 355)"><path d="M27.6 -21.6C33.9 -14.1 35.8 -2.7 33.5 7.7C31.1 18.1 24.5 27.5 15.4 31.7C6.4 35.9 -5 34.9 -14 30.2C-23.1 25.4 -29.9 16.9 -32 7.4C-34.1 -2.1 -31.4 -12.5 -25.3 -20C-19.2 -27.4 -9.6 -32 0.5 -32.4C10.6 -32.8 21.2 -29.1 27.6 -21.6Z" stroke="#fcc497" fill="none" stroke-width="2"></path></g><g transform="translate(367 31)"><path d="M23.9 -18.9C29.4 -12.1 31.2 -2.3 28.9 6.2C26.7 14.7 20.4 22 12.6 25.5C4.8 29 -4.5 28.8 -12.5 25.2C-20.4 21.7 -27 14.7 -29.1 6.4C-31.2 -1.9 -28.7 -11.4 -23.1 -18.2C-17.5 -25.1 -8.8 -29.2 0.2 -29.4C9.2 -29.5 18.4 -25.8 23.9 -18.9Z" stroke="#fcc497" fill="none" stroke-width="2"></path></g><g transform="translate(487 120)"><path d="M16.9 -13.5C20.9 -8.5 22.3 -1.6 20.7 4.5C19.2 10.6 14.6 15.8 8.9 18.6C3.2 21.3 -3.7 21.7 -9.1 19C-14.5 16.4 -18.5 10.7 -19.9 4.6C-21.3 -1.6 -20.1 -8.4 -16.4 -13.3C-12.6 -18.2 -6.3 -21.3 0.1 -21.4C6.5 -21.5 13 -18.5 16.9 -13.5Z" stroke="#fcc497" fill="none" stroke-width="2"></path></g><g transform="translate(447 433)"><path d="M26.9 -21.6C33.4 -13.3 36.2 -2.2 34 7.8C31.8 17.8 24.5 26.8 15.1 31.2C5.7 35.7 -5.7 35.6 -14.6 31C-23.4 26.5 -29.7 17.3 -31.9 7.3C-34.2 -2.7 -32.4 -13.6 -26.4 -21.8C-20.5 -30 -10.2 -35.5 0 -35.5C10.2 -35.5 20.4 -29.9 26.9 -21.6Z" stroke="#fcc497" fill="none" stroke-width="2"></path></g><g transform="translate(7 141)"><path d="M26.6 -21.3C32.5 -13.9 33.8 -2.9 31.5 7.3C29.3 17.5 23.4 27 14.7 31.6C6 36.2 -5.6 35.9 -14.8 31.2C-24.1 26.6 -31.2 17.7 -33.6 7.5C-36.1 -2.7 -34 -14.1 -27.6 -21.6C-21.3 -29.1 -10.6 -32.8 -0.1 -32.7C10.4 -32.6 20.8 -28.7 26.6 -21.3Z" stroke="#fcc497" fill="none" stroke-width="2"></path></g><g transform="translate(851 379)"><path d="M26.7 -21.1C33 -13.4 35.4 -2.4 33 7.2C30.6 16.8 23.2 24.9 14.2 29.2C5.1 33.5 -5.7 33.9 -14.9 29.9C-24 25.9 -31.5 17.4 -33.8 7.7C-36 -2.1 -33.1 -13.1 -26.6 -20.9C-20.1 -28.7 -10 -33.4 0.1 -33.4C10.2 -33.5 20.4 -28.9 26.7 -21.1Z" stroke="#fcc497" fill="none" stroke-width="2"></path></g><g transform="translate(892 568)"><path d="M31.7 -24.4C39.3 -15.8 42.4 -2.7 39.4 8.4C36.4 19.5 27.3 28.6 16.3 33.9C5.3 39.2 -7.5 40.7 -17.6 36C-27.6 31.3 -35 20.5 -37 9.1C-39.1 -2.2 -35.8 -14.1 -28.7 -22.6C-21.7 -31.1 -10.8 -36.2 0.6 -36.7C12.1 -37.2 24.2 -33 31.7 -24.4Z" stroke="#fcc497" fill="none" stroke-width="2"></path></g><g transform="translate(800 133)"><path d="M15.5 -12.7C19.1 -7.9 20.2 -1.5 18.8 4.2C17.4 9.9 13.5 14.8 8.2 17.5C3 20.2 -3.6 20.6 -8.9 18.2C-14.3 15.7 -18.5 10.4 -19.7 4.6C-20.9 -1.2 -19.2 -7.6 -15.5 -12.4C-11.7 -17.2 -5.8 -20.5 0.1 -20.5C6 -20.6 11.9 -17.4 15.5 -12.7Z" stroke="#fcc497" fill="none" stroke-width="2"></path></g><g transform="translate(631 172)"><path d="M31.2 -24.8C38.8 -15.4 42.1 -2.5 39.4 8.9C36.7 20.4 28.1 30.4 17.4 35.3C6.6 40.2 -6.2 39.9 -16.9 34.9C-27.6 29.8 -36.1 20 -38.3 9.1C-40.5 -1.8 -36.4 -13.8 -29 -23.2C-21.6 -32.6 -10.8 -39.3 0.5 -39.7C11.8 -40.2 23.6 -34.2 31.2 -24.8Z" stroke="#fcc497" fill="none" stroke-width="2"></path></g><g transform="translate(22 567)"><path d="M17.5 -14.3C21.4 -9 22.5 -1.8 20.9 4.5C19.2 10.8 14.8 16.1 9.1 18.9C3.4 21.6 -3.6 21.7 -9.6 19.1C-15.6 16.5 -20.8 11.2 -22.2 5C-23.6 -1.2 -21.4 -8.2 -17.1 -13.6C-12.8 -19 -6.4 -22.6 0.2 -22.8C6.8 -22.9 13.5 -19.6 17.5 -14.3Z" stroke="#fcc497" fill="none" stroke-width="2"></path></g><g transform="translate(183 8)"><path d="M25 -20.3C31 -12.4 33.6 -2.1 31.7 7.6C29.7 17.3 23.4 26.4 14.7 30.5C6 34.7 -5 33.9 -13.5 29.3C-22.1 24.7 -28.2 16.3 -30.6 6.7C-33.1 -2.9 -31.8 -13.6 -26.1 -21.4C-20.3 -29.3 -10.2 -34.2 -0.3 -34C9.5 -33.7 19 -28.2 25 -20.3Z" stroke="#fcc497" fill="none" stroke-width="2"></path></g><g transform="translate(394 191)"><path d="M26.7 -20.9C33 -13.3 35.6 -2.3 33.5 7.9C31.3 18 24.5 27.4 15.3 31.9C6.1 36.4 -5.6 36 -15.1 31.4C-24.6 26.8 -31.9 17.9 -34.2 7.9C-36.4 -2.1 -33.4 -13.2 -26.9 -20.9C-20.3 -28.5 -10.1 -32.8 0 -32.8C10.2 -32.8 20.3 -28.5 26.7 -20.9Z" stroke="#fcc497" fill="none" stroke-width="2"></path></g><g transform="translate(832 37)"><path d="M16.9 -13.3C21.1 -8.2 23.3 -1.2 21.9 5C20.5 11.2 15.5 16.6 9.5 19.4C3.4 22.2 -3.8 22.5 -9.5 19.7C-15.3 17 -19.7 11.2 -21.4 4.7C-23 -1.8 -21.8 -9.1 -17.8 -14.2C-13.7 -19.3 -6.9 -22.2 -0.3 -22C6.3 -21.8 12.7 -18.5 16.9 -13.3Z" stroke="#fcc497" fill="none" stroke-width="2"></path></g><g transform="translate(606 593)"><path d="M22.6 -17.6C28 -11.3 30 -2 28.1 6.3C26.1 14.7 20.1 22 12.6 25.3C5.1 28.6 -4 27.8 -11.2 24C-18.4 20.2 -23.7 13.4 -25.4 5.8C-27.2 -1.8 -25.3 -10.3 -20.5 -16.4C-15.7 -22.5 -7.8 -26.3 0.4 -26.7C8.6 -27 17.2 -23.8 22.6 -17.6Z" stroke="#fcc497" fill="none" stroke-width="2"></path></g><g transform="translate(237 220)"><path d="M27 -22.4C33.4 -13.6 35.7 -2.5 33.4 7.6C31.1 17.6 24.1 26.6 14.9 31C5.8 35.4 -5.6 35.3 -15.2 30.9C-24.8 26.5 -32.6 17.9 -35.3 7.6C-38 -2.7 -35.6 -14.6 -28.8 -23.4C-22.1 -32.2 -11.1 -38 -0.4 -37.7C10.3 -37.5 20.7 -31.1 27 -22.4Z" stroke="#fcc497" fill="none" stroke-width="2"></path></g><g transform="translate(8 266)"><path d="M27.4 -22.2C33.6 -14.2 35.2 -2.9 32.9 7.6C30.5 18 24.2 27.6 15.3 31.9C6.5 36.2 -5 35.2 -14.9 30.6C-24.7 26 -32.9 17.7 -35.3 7.8C-37.8 -2 -34.5 -13.4 -27.6 -21.6C-20.8 -29.9 -10.4 -34.9 0.1 -35C10.6 -35.1 21.3 -30.3 27.4 -22.2Z" stroke="#fcc497" fill="none" stroke-width="2"></path></g><g transform="translate(658 414)"><path d="M28.3 -23C34.6 -14.7 36.1 -3.1 33.4 7.2C30.8 17.5 23.9 26.4 14.7 31.1C5.4 35.8 -6.1 36.3 -15.7 31.9C-25.3 27.6 -33 18.4 -35 8.3C-37.1 -1.8 -33.6 -12.9 -26.8 -21.3C-20 -29.7 -10 -35.3 0.5 -35.7C11 -36.1 22.1 -31.3 28.3 -23Z" stroke="#fcc497" fill="none" stroke-width="2"></path></g><g transform="translate(781 578)"><path d="M28.8 -22.9C36.2 -13.8 40 -1.9 37.8 8.8C35.5 19.5 27 29 16.6 33.9C6.1 38.7 -6.3 38.9 -16.4 34C-26.5 29.2 -34.1 19.4 -36.4 8.5C-38.7 -2.3 -35.6 -14.1 -28.7 -23.1C-21.7 -32.1 -10.9 -38.3 0 -38.2C10.8 -38.2 21.5 -32 28.8 -22.9Z" stroke="#fcc497" fill="none" stroke-width="2"></path></g><g transform="translate(156 322)"><path d="M23 -17.8C28.9 -11 32 -1.5 30.2 7.2C28.5 15.9 21.9 23.8 13.7 27.5C5.4 31.1 -4.4 30.4 -12.6 26.4C-20.8 22.4 -27.3 15 -29.4 6.5C-31.4 -1.9 -29 -11.6 -23.4 -18.3C-17.8 -24.9 -8.9 -28.6 -0.1 -28.5C8.6 -28.4 17.2 -24.5 23 -17.8Z" stroke="#fcc497" fill="none" stroke-width="2"></path></g><g transform="translate(320 595)"><path d="M29.7 -24.2C36.5 -15.1 38.8 -2.8 36.3 8.3C33.7 19.4 26.3 29.4 16.2 34.7C6 40 -6.9 40.6 -17.1 35.6C-27.3 30.7 -34.8 20.1 -36.9 9C-39 -2.2 -35.7 -14 -28.6 -23.2C-21.6 -32.4 -10.8 -38.9 0.3 -39.2C11.4 -39.4 22.8 -33.4 29.7 -24.2Z" stroke="#fcc497" fill="none" stroke-width="2"></path></g><g transform="translate(472 6)"><path d="M16.7 -13.3C20.6 -8.4 22 -1.5 20.5 4.6C19 10.7 14.7 16.1 8.8 19.2C3 22.4 -4.3 23.2 -10.2 20.6C-16.1 18 -20.6 11.9 -21.9 5.2C-23.3 -1.4 -21.5 -8.6 -17.4 -13.5C-13.2 -18.5 -6.6 -21.2 -0.1 -21.1C6.4 -21.1 12.8 -18.2 16.7 -13.3Z" stroke="#fcc497" fill="none" stroke-width="2"></path></g></g></svg>