<svg id="visual" viewBox="0 0 900 600" width="900" height="600" xmlns="http://www.w3.org/2000/svg" xmlns:xlink="http://www.w3.org/1999/xlink" version="1.1"><rect x="0" y="0" width="900" height="600" fill="#f0a655"></rect><g fill="none" stroke="#fff" stroke-width="2"><circle r="79" cx="495" cy="128"></circle><circle r="39" cx="741" cy="431"></circle><circle r="54" cx="808" cy="43"></circle><circle r="42" cx="300" cy="405"></circle><circle r="64" cx="506" cy="511"></circle><circle r="49" cx="637" cy="304"></circle><circle r="44" cx="129" cy="374"></circle><circle r="69" cx="12" cy="42"></circle><circle r="58" cx="338" cy="171"></circle><circle r="77" cx="149" cy="136"></circle><circle r="55" cx="894" cy="312"></circle><circle r="49" cx="16" cy="594"></circle><circle r="74" cx="250" cy="561"></circle><circle r="52" cx="891" cy="510"></circle><circle r="73" cx="326" cy="10"></circle><circle r="68" cx="479" cy="331"></circle><circle r="54" cx="666" cy="146"></circle><circle r="38" cx="689" cy="592"></circle></g></svg>