<svg id="visual" viewBox="0 0 900 600" width="900" height="600" xmlns="http://www.w3.org/2000/svg" xmlns:xlink="http://www.w3.org/1999/xlink" version="1.1"><g transform="translate(461.1135093011903 265.52131725185416)"><path d="M96.5 -145.2C126.4 -150 152.8 -126.7 156.8 -97.9C160.8 -69 142.4 -34.5 151.8 5.4C161.2 45.3 198.4 90.7 196.9 123.9C195.4 157.1 155.2 178.1 115.9 173.6C76.7 169.1 38.3 139.1 -5.8 149.2C-50 159.3 -100 209.5 -139.8 214.4C-179.7 219.2 -209.3 178.6 -217 135.3C-224.7 92 -210.3 46 -199.1 6.5C-187.8 -33 -179.6 -66 -163.2 -94.1C-146.8 -122.3 -122.2 -145.6 -93.6 -141.6C-65 -137.6 -32.5 -106.3 0.4 -107C33.3 -107.7 66.7 -140.5 96.5 -145.2" fill="#fff"></path></g></svg>