<svg width="612" height="200" viewBox="0 0 612 200" fill="none" xmlns="http://www.w3.org/2000/svg">
<g clip-path="url(#clip0_1_294)">
<path d="M182.8 105.307L131.022 99.9457C108.149 97.577 85.0893 97.6211 62.2249 100.077L13.5372 105.307L0 99.2851C0 99.2851 49.0838 88.7578 98.1676 88.7578C147.251 88.7578 196.335 99.2851 196.335 99.2851L182.8 105.307Z" fill="#3C92B9"/>
<path d="M145.329 7.19934C136.166 69.5196 98.8756 124.174 44.1894 155.434L43.1194 156.045L63.4191 164.816C93.9803 178.019 129.231 174.202 156.256 154.761C173.656 142.245 185.889 123.808 190.66 102.912C196.783 76.0901 188.307 48.0273 168.361 29.0789L145.329 7.19934Z" fill="#294C11"/>
<path d="M135.861 42.2179C124.723 78.9443 102.545 111.35 72.3425 135.028L53.3307 149.934L71.2154 157.293C98.1409 168.372 128.907 164.496 152.243 147.084L155.425 144.709C168.398 135.029 177.392 120.947 180.719 105.105L181.327 102.209C186.377 78.1599 177.971 53.2646 159.374 37.2003L141.948 22.1466L135.861 42.2179Z" fill="#EB280C"/>
<path d="M142.431 42.3984C143.587 40.0821 144.209 39.4315 144.173 39.4378C144.134 39.4447 144.178 38.1547 145.572 40.4198C145.786 40.7687 145.923 41.0149 146.143 41.2726C146.839 42.0872 147.022 43.2215 146.619 44.2137C146.215 45.2059 145.293 45.8905 144.226 45.9889L143.978 46.0118C143.186 46.0849 142.425 45.6797 142.044 44.9809C141.663 44.2821 141.733 43.4234 142.224 42.7964C142.315 42.6798 142.314 42.6322 142.431 42.3984Z" fill="#272120"/>
<path d="M119.94 138.708C121.096 136.391 121.718 135.741 121.682 135.747C121.643 135.754 121.687 134.464 123.081 136.729C123.296 137.078 123.433 137.324 123.653 137.582C124.348 138.396 124.531 139.531 124.128 140.523C123.725 141.515 122.802 142.2 121.735 142.298L121.488 142.321C120.695 142.394 119.935 141.989 119.553 141.29C119.172 140.591 119.243 139.733 119.733 139.106C119.824 138.989 119.823 138.941 119.94 138.708Z" fill="#272120"/>
<path d="M155.507 68.7387C156.663 66.4224 157.285 65.7718 157.248 65.7781C157.209 65.785 157.254 64.495 158.648 66.7601C158.862 67.109 158.999 67.3552 159.219 67.6129C159.915 68.4275 160.098 69.5618 159.695 70.554C159.291 71.5462 158.368 72.2308 157.302 72.3292L157.054 72.3521C156.262 72.4252 155.501 72.02 155.12 71.3212C154.739 70.6224 154.809 69.7637 155.3 69.1367C155.391 69.0201 155.39 68.9725 155.507 68.7387Z" fill="#272120"/>
<path d="M127.496 87.0269C128.652 84.7106 129.274 84.0599 129.238 84.0662C129.199 84.0731 129.243 82.7831 130.637 85.0482C130.851 85.3971 130.988 85.6433 131.208 85.901C131.904 86.7156 132.087 87.8499 131.684 88.8421C131.28 89.8343 130.358 90.519 129.291 90.6173L129.044 90.6402C128.251 90.7133 127.49 90.3081 127.109 89.6093C126.728 88.9105 126.799 88.0518 127.289 87.4248C127.38 87.3082 127.379 87.2606 127.496 87.0269Z" fill="#272120"/>
<path d="M163.603 92.5282C164.759 90.2119 165.381 89.5612 165.344 89.5676C165.305 89.5745 165.35 88.2845 166.743 90.5496C166.958 90.8985 167.095 91.1447 167.315 91.4024C168.01 92.217 168.194 93.3513 167.79 94.3435C167.387 95.3357 166.464 96.0203 165.398 96.1187L165.15 96.1415C164.358 96.2147 163.597 95.8095 163.216 95.1107C162.835 94.4119 162.905 93.5532 163.396 92.9262C163.487 92.8096 163.486 92.762 163.603 92.5282Z" fill="#272120"/>
<path d="M144.091 104.348C145.247 102.031 145.869 101.381 145.833 101.387C145.794 101.394 145.838 100.104 147.232 102.369C147.447 102.718 147.584 102.964 147.804 103.222C148.499 104.036 148.682 105.171 148.279 106.163C147.876 107.155 146.953 107.84 145.886 107.938L145.639 107.961C144.846 108.034 144.086 107.629 143.704 106.93C143.323 106.231 143.394 105.373 143.884 104.746C143.975 104.629 143.974 104.581 144.091 104.348Z" fill="#272120"/>
<path d="M136.909 63.6189C138.065 61.3026 138.687 60.6519 138.651 60.6583C138.612 60.6651 138.656 59.3751 140.05 61.6402C140.265 61.9891 140.402 62.2353 140.622 62.493C141.317 63.3076 141.501 64.4419 141.097 65.4341C140.694 66.4263 139.771 67.111 138.705 67.2094L138.457 67.2322C137.664 67.3053 136.904 66.9001 136.523 66.2013C136.141 65.5025 136.212 64.6439 136.703 64.0168C136.794 63.9002 136.793 63.8526 136.909 63.6189Z" fill="#272120"/>
<path d="M113.734 113.149C114.89 110.833 115.512 110.182 115.476 110.189C115.437 110.196 115.481 108.906 116.875 111.171C117.09 111.52 117.227 111.766 117.447 112.023C118.142 112.838 118.325 113.972 117.922 114.964C117.519 115.957 116.596 116.641 115.529 116.74L115.282 116.763C114.489 116.836 113.729 116.431 113.348 115.732C112.966 115.033 113.037 114.174 113.527 113.547C113.619 113.431 113.618 113.383 113.734 113.149Z" fill="#272120"/>
<path d="M145.948 129.797C147.104 127.481 147.725 126.83 147.689 126.837C147.65 126.843 147.695 125.553 149.088 127.819C149.303 128.167 149.44 128.414 149.66 128.671C150.355 129.486 150.539 130.62 150.135 131.612C149.732 132.605 148.809 133.289 147.743 133.388L147.495 133.411C146.703 133.484 145.942 133.078 145.561 132.38C145.18 131.681 145.25 130.822 145.741 130.195C145.832 130.079 145.831 130.031 145.948 129.797Z" fill="#272120"/>
<path d="M89.5041 143.199C90.6601 140.882 91.282 140.232 91.2459 140.238C91.2069 140.245 91.2512 138.955 92.645 141.22C92.8597 141.569 92.9966 141.815 93.2166 142.073C93.912 142.887 94.0953 144.022 93.692 145.014C93.2886 146.006 92.3659 146.691 91.2994 146.789L91.0518 146.812C90.2591 146.885 89.4988 146.48 89.1174 145.781C88.7361 145.082 88.8068 144.224 89.2973 143.597C89.3885 143.48 89.3874 143.432 89.5041 143.199Z" fill="#272120"/>
<path d="M45.1772 68.1657L42.7533 59.9322C40.588 52.5777 33.8373 47.5279 26.1706 47.5279H17.3553L20.4046 51.304C24.001 55.7573 28.4735 59.4246 33.5452 62.0786L45.1772 68.1657Z" fill="#178601"/>
<path d="M46.0855 68.9932L46.4742 60.4191C46.8213 52.7603 42.0824 45.7878 34.8334 43.2918L26.4984 40.4218L28.1522 44.9849C30.1028 50.3664 33.1377 55.2901 37.069 59.4507L46.0855 68.9932Z" fill="#178601"/>
<path d="M14.3149 71.6341C19.2864 66.3329 26.8576 64.3528 33.7879 66.5413L41.0675 68.8402C45.8903 70.3632 51.1073 70.0368 55.7028 67.9247C62.0299 65.0166 69.5265 66.8461 73.8028 72.3418L74.5676 73.3247C80.2211 80.5903 81.901 90.1876 79.0515 98.9415L73.9875 114.499L72.1622 123.017C70.8107 129.324 65.3516 133.91 58.9059 134.153C57.6987 134.199 57.3798 134.085 55.2686 133.74C51.8217 133.177 45.8293 133.662 41.7258 133.74C38.0924 133.81 35.358 133.806 32.2217 133.783C28.562 133.755 25.0181 132.497 22.1603 130.211L12.8284 122.745L6.92928 102.463C3.77078 91.6036 6.57857 79.8835 14.3149 71.6341Z" fill="#E92500"/>
<path d="M94.129 75.4622C118.666 75.4622 138.58 95.3764 138.58 119.914C138.58 144.451 118.666 164.365 94.129 164.365C69.5918 164.365 49.6776 144.451 49.6776 119.914C49.6776 95.3764 69.5918 75.4622 94.129 75.4622Z" fill="#FFA00D"/>
<path d="M91.4036 74.7138L93.8276 66.4803C95.9928 59.1257 102.744 54.0759 110.41 54.0759H119.226L116.176 57.852C112.58 62.3053 108.107 65.9726 103.036 68.6266L91.4036 74.7138Z" fill="#178601"/>
<path d="M90.4953 75.5412L90.1066 66.9671C89.7595 59.3083 94.4984 52.3358 101.747 49.8398L110.082 46.9698L108.429 51.5329C106.478 56.9145 103.443 61.8381 99.5118 65.9987L90.4953 75.5412Z" fill="#178601"/>
<path d="M195.922 117.081C195.922 146.95 175.776 173.061 146.884 180.639L140.438 182.329C111.458 189.93 80.989 189.777 52.0867 181.886L48.472 180.899C20.2104 173.182 0.643677 147.461 0.749195 118.165C0.772603 111.665 0.62945 98.4713 0.41575 98.4713C0.0429084 98.4713 47.6449 120.048 96.2031 120.048C145.576 120.048 195.922 98.4713 195.922 98.4713L195.922 117.081Z" fill="#3C92B9"/>
<path d="M207.621 98.9999V58.7657H218.312L229.348 80.4347L240.383 58.7657H251.074V98.9999H243.2V69.399L229.233 96.1261L215.323 69.2841V98.9999H207.621ZM272.446 99.5747C269.457 99.5747 266.737 98.885 264.284 97.5055C261.87 96.1261 259.955 94.2676 258.537 91.9302C257.119 89.5928 256.41 86.968 256.41 84.0558C256.41 81.1436 257.081 78.5188 258.422 76.1814C259.801 73.8439 261.66 71.9855 263.997 70.606C266.335 69.2266 268.94 68.5368 271.814 68.5368C274.688 68.5368 277.236 69.2457 279.459 70.6635C281.681 72.0813 283.425 73.9972 284.689 76.4113C285.992 78.8253 286.643 81.5651 286.643 84.6306V86.6997H264.457C264.802 87.8876 265.357 88.9605 266.124 89.9185C266.928 90.8764 267.906 91.6237 269.055 92.1601C270.243 92.6966 271.508 92.9648 272.849 92.9648C274.19 92.9648 275.416 92.754 276.527 92.3325C277.677 91.911 278.654 91.3171 279.459 90.5507L284.632 95.2639C282.792 96.7583 280.895 97.8504 278.941 98.5401C277.025 99.2298 274.86 99.5747 272.446 99.5747ZM264.342 81.067H278.884C278.616 79.8791 278.117 78.8445 277.389 77.9632C276.7 77.0435 275.857 76.3346 274.86 75.8365C273.902 75.3 272.829 75.0318 271.642 75.0318C270.415 75.0318 269.304 75.2809 268.308 75.779C267.35 76.2772 266.526 76.986 265.836 77.9057C265.147 78.787 264.649 79.8408 264.342 81.067ZM302.957 99.5747C300.198 99.5747 297.649 99.2298 295.312 98.5401C292.975 97.8121 290.944 96.7775 289.219 95.4363L293.128 90.2059C294.852 91.3554 296.5 92.2176 298.071 92.7924C299.68 93.3671 301.271 93.6545 302.842 93.6545C304.604 93.6545 306.003 93.3671 307.037 92.7924C308.11 92.1793 308.647 91.3937 308.647 90.4358C308.647 89.6694 308.34 89.0563 307.727 88.5965C307.152 88.1367 306.214 87.811 304.911 87.6194L299.163 86.7572C296.174 86.2974 293.913 85.3394 292.381 83.8833C290.848 82.3889 290.082 80.4347 290.082 78.0206C290.082 76.0664 290.58 74.3996 291.576 73.0201C292.611 71.6023 294.048 70.5102 295.887 69.7439C297.764 68.9392 299.987 68.5368 302.554 68.5368C304.738 68.5368 306.865 68.8434 308.934 69.4565C311.042 70.0696 313.015 71.0084 314.854 72.2729L311.061 77.3884C309.413 76.3538 307.842 75.6066 306.348 75.1468C304.853 74.6869 303.34 74.457 301.807 74.457C300.389 74.457 299.24 74.7253 298.358 75.2617C297.515 75.7982 297.094 76.5071 297.094 77.3884C297.094 78.1931 297.4 78.8253 298.013 79.2851C298.627 79.745 299.68 80.0707 301.175 80.2623L306.922 81.1244C309.873 81.5459 312.134 82.5039 313.705 83.9983C315.276 85.4544 316.061 87.3512 316.061 89.6886C316.061 91.6045 315.487 93.3097 314.337 94.8041C313.188 96.2602 311.636 97.4289 309.681 98.3102C307.727 99.1532 305.486 99.5747 302.957 99.5747ZM329.804 99.5172C327.658 99.5172 325.761 99.1341 324.114 98.3677C322.466 97.563 321.182 96.4709 320.263 95.0915C319.343 93.712 318.883 92.1218 318.883 90.3208C318.883 87.447 319.956 85.2245 322.102 83.6534C324.286 82.0441 327.275 81.2394 331.068 81.2394C333.674 81.2394 336.126 81.6417 338.426 82.4464V80.2623C338.426 78.5379 337.889 77.2351 336.816 76.3538C335.743 75.4725 334.172 75.0318 332.103 75.0318C330.839 75.0318 329.478 75.2426 328.022 75.6641C326.566 76.0472 324.88 76.6603 322.964 77.5033L320.09 71.6981C322.466 70.6252 324.727 69.8205 326.873 69.2841C329.057 68.7476 331.241 68.4794 333.425 68.4794C337.448 68.4794 340.571 69.4565 342.794 71.4107C345.055 73.3266 346.185 76.0472 346.185 79.5725V98.9999H338.426V96.8733C337.199 97.7929 335.877 98.4635 334.46 98.885C333.042 99.3065 331.49 99.5172 329.804 99.5172ZM326.355 90.1484C326.355 91.298 326.853 92.2176 327.85 92.9073C328.846 93.5587 330.168 93.8844 331.816 93.8844C333.118 93.8844 334.325 93.7312 335.437 93.4246C336.548 93.0798 337.544 92.5816 338.426 91.9302V87.5619C337.468 87.1787 336.471 86.8913 335.437 86.6997C334.402 86.5082 333.291 86.4124 332.103 86.4124C330.302 86.4124 328.884 86.7572 327.85 87.447C326.853 88.0984 326.355 88.9988 326.355 90.1484Z" fill="white"/>
<path d="M227.451 164.575C224.462 164.575 221.665 164.057 219.059 163.023C216.453 161.95 214.174 160.475 212.219 158.597C210.303 156.719 208.79 154.535 207.679 152.045C206.606 149.516 206.069 146.795 206.069 143.883C206.069 140.932 206.606 138.212 207.679 135.721C208.79 133.192 210.323 130.989 212.277 129.111C214.231 127.233 216.492 125.777 219.059 124.743C221.665 123.67 224.462 123.133 227.451 123.133C229.673 123.133 231.819 123.44 233.888 124.053C235.958 124.666 237.873 125.528 239.636 126.64C241.437 127.751 242.97 129.092 244.234 130.663L238.601 136.238C237.145 134.437 235.459 133.077 233.543 132.157C231.666 131.238 229.635 130.778 227.451 130.778C225.65 130.778 223.964 131.123 222.393 131.813C220.822 132.464 219.461 133.384 218.312 134.571C217.162 135.721 216.262 137.1 215.61 138.71C214.959 140.281 214.633 142.005 214.633 143.883C214.633 145.722 214.959 147.446 215.61 149.056C216.262 150.627 217.182 152.006 218.369 153.194C219.557 154.344 220.937 155.244 222.508 155.896C224.117 156.547 225.861 156.873 227.738 156.873C229.846 156.873 231.819 156.432 233.658 155.551C235.498 154.669 237.126 153.405 238.544 151.757L244.004 157.16C242.74 158.693 241.226 160.015 239.464 161.126C237.701 162.237 235.785 163.099 233.716 163.713C231.685 164.287 229.597 164.575 227.451 164.575ZM262.117 164.575C259.128 164.575 256.427 163.885 254.013 162.506C251.599 161.126 249.683 159.268 248.265 156.93C246.847 154.593 246.138 151.968 246.138 149.056C246.138 146.144 246.828 143.519 248.207 141.181C249.625 138.806 251.541 136.928 253.955 135.549C256.408 134.169 259.128 133.479 262.117 133.479C265.106 133.479 267.807 134.169 270.221 135.549C272.674 136.928 274.59 138.806 275.969 141.181C277.387 143.519 278.096 146.144 278.096 149.056C278.096 151.968 277.387 154.593 275.969 156.93C274.59 159.268 272.693 161.126 270.279 162.506C267.865 163.885 265.144 164.575 262.117 164.575ZM262.117 157.735C263.688 157.735 265.087 157.352 266.313 156.585C267.577 155.819 268.574 154.784 269.302 153.482C270.068 152.14 270.451 150.665 270.451 149.056C270.451 147.408 270.068 145.933 269.302 144.63C268.574 143.327 267.577 142.293 266.313 141.526C265.087 140.722 263.688 140.319 262.117 140.319C260.584 140.319 259.186 140.722 257.921 141.526C256.657 142.293 255.66 143.327 254.932 144.63C254.204 145.933 253.84 147.408 253.84 149.056C253.84 150.665 254.204 152.14 254.932 153.482C255.66 154.784 256.657 155.819 257.921 156.585C259.186 157.352 260.584 157.735 262.117 157.735ZM282.936 164V134.054H290.81V136.353C292.956 134.437 295.562 133.479 298.627 133.479C300.582 133.479 302.325 133.882 303.858 134.686C305.391 135.453 306.655 136.545 307.651 137.963C308.877 136.507 310.314 135.395 311.962 134.629C313.648 133.863 315.507 133.479 317.537 133.479C319.798 133.479 321.772 133.997 323.458 135.031C325.182 136.028 326.523 137.426 327.481 139.227C328.477 140.99 328.975 143.059 328.975 145.435V164H321.159V146.584C321.159 144.63 320.641 143.097 319.607 141.986C318.572 140.836 317.193 140.262 315.468 140.262C314.28 140.262 313.188 140.511 312.192 141.009C311.234 141.507 310.41 142.254 309.72 143.251C309.759 143.595 309.797 143.94 309.835 144.285C309.874 144.63 309.893 145.013 309.893 145.435V164H302.018V146.584C302.018 144.63 301.501 143.097 300.467 141.986C299.47 140.836 298.11 140.262 296.386 140.262C295.198 140.262 294.125 140.492 293.167 140.951C292.247 141.411 291.462 142.101 290.81 143.021V164H282.936ZM335.025 175.725V134.054H342.784V136.526C345.237 134.61 348.072 133.652 351.291 133.652C354.127 133.652 356.694 134.342 358.993 135.721C361.292 137.1 363.112 138.959 364.453 141.296C365.833 143.595 366.523 146.182 366.523 149.056C366.523 151.93 365.833 154.535 364.453 156.873C363.074 159.172 361.216 161.011 358.878 162.391C356.541 163.732 353.935 164.402 351.061 164.402C349.567 164.402 348.13 164.211 346.75 163.828C345.371 163.406 344.087 162.812 342.899 162.046V175.725H335.025ZM350.027 157.735C351.674 157.735 353.15 157.352 354.452 156.585C355.793 155.819 356.847 154.784 357.614 153.482C358.38 152.179 358.763 150.703 358.763 149.056C358.763 147.408 358.38 145.933 357.614 144.63C356.847 143.289 355.793 142.254 354.452 141.526C353.15 140.76 351.674 140.377 350.027 140.377C348.57 140.377 347.229 140.626 346.003 141.124C344.815 141.584 343.781 142.293 342.899 143.251V154.918C343.742 155.761 344.777 156.451 346.003 156.988C347.268 157.486 348.609 157.735 350.027 157.735ZM381.163 164.517C379.017 164.517 377.121 164.134 375.473 163.368C373.825 162.563 372.542 161.471 371.622 160.091C370.702 158.712 370.243 157.122 370.243 155.321C370.243 152.447 371.315 150.224 373.461 148.653C375.645 147.044 378.634 146.239 382.428 146.239C385.033 146.239 387.486 146.642 389.785 147.446V145.262C389.785 143.538 389.248 142.235 388.176 141.354C387.103 140.472 385.532 140.032 383.462 140.032C382.198 140.032 380.838 140.243 379.381 140.664C377.925 141.047 376.239 141.66 374.323 142.503L371.45 136.698C373.825 135.625 376.086 134.821 378.232 134.284C380.416 133.748 382.6 133.479 384.784 133.479C388.808 133.479 391.931 134.456 394.153 136.411C396.414 138.327 397.544 141.047 397.544 144.573V164H389.785V161.873C388.559 162.793 387.237 163.463 385.819 163.885C384.401 164.306 382.849 164.517 381.163 164.517ZM377.715 155.148C377.715 156.298 378.213 157.218 379.209 157.907C380.205 158.559 381.527 158.884 383.175 158.884C384.478 158.884 385.685 158.731 386.796 158.425C387.907 158.08 388.904 157.582 389.785 156.93V152.562C388.827 152.179 387.831 151.891 386.796 151.7C385.761 151.508 384.65 151.412 383.462 151.412C381.661 151.412 380.244 151.757 379.209 152.447C378.213 153.098 377.715 153.999 377.715 155.148ZM403.504 164V134.054H411.378V137.388C412.336 136.085 413.486 135.089 414.827 134.399C416.168 133.709 417.682 133.364 419.368 133.364C420.824 133.403 421.916 133.633 422.644 134.054V140.951C422.069 140.683 421.437 140.492 420.747 140.377C420.058 140.223 419.349 140.147 418.621 140.147C417.088 140.147 415.689 140.53 414.425 141.296C413.16 142.063 412.145 143.155 411.378 144.573V164H403.504ZM441.163 164.46C437.83 164.46 435.301 163.713 433.576 162.218C431.89 160.685 431.047 158.463 431.047 155.551V140.607H424.897V134.054H431.047V126.41L438.922 124.628V134.054H447.486V140.607H438.922V153.941C438.922 155.321 439.228 156.317 439.842 156.93C440.455 157.505 441.528 157.792 443.06 157.792C443.827 157.792 444.516 157.754 445.129 157.677C445.781 157.562 446.49 157.371 447.256 157.103V163.598C446.451 163.866 445.455 164.077 444.267 164.23C443.079 164.383 442.045 164.46 441.163 164.46ZM451.327 164V134.054H459.202V164H451.327ZM455.236 130.491C454.009 130.491 452.956 130.05 452.074 129.169C451.193 128.287 450.752 127.233 450.752 126.007C450.752 124.743 451.193 123.689 452.074 122.846C452.956 121.965 454.009 121.524 455.236 121.524C456.5 121.524 457.554 121.965 458.397 122.846C459.278 123.689 459.719 124.743 459.719 126.007C459.719 127.233 459.278 128.287 458.397 129.169C457.554 130.05 456.5 130.491 455.236 130.491ZM465.36 164V123.766L473.234 122.444V164H465.36ZM479.392 164V123.766L487.267 122.041V136.526C489.528 134.495 492.325 133.479 495.658 133.479C497.996 133.479 500.046 133.997 501.809 135.031C503.61 136.028 505.008 137.426 506.004 139.227C507.001 140.99 507.499 143.059 507.499 145.435V164H499.624V146.584C499.624 144.63 499.069 143.097 497.958 141.986C496.846 140.836 495.333 140.262 493.417 140.262C492.076 140.262 490.888 140.53 489.853 141.066C488.819 141.565 487.956 142.293 487.267 143.251V164H479.392ZM523.005 164.517C520.859 164.517 518.962 164.134 517.314 163.368C515.667 162.563 514.383 161.471 513.463 160.091C512.544 158.712 512.084 157.122 512.084 155.321C512.084 152.447 513.157 150.224 515.303 148.653C517.487 147.044 520.476 146.239 524.269 146.239C526.875 146.239 529.327 146.642 531.626 147.446V145.262C531.626 143.538 531.09 142.235 530.017 141.354C528.944 140.472 527.373 140.032 525.304 140.032C524.039 140.032 522.679 140.243 521.223 140.664C519.767 141.047 518.081 141.66 516.165 142.503L513.291 136.698C515.667 135.625 517.928 134.821 520.073 134.284C522.258 133.748 524.442 133.479 526.626 133.479C530.649 133.479 533.772 134.456 535.995 136.411C538.255 138.327 539.386 141.047 539.386 144.573V164H531.626V161.873C530.4 162.793 529.078 163.463 527.66 163.885C526.243 164.306 524.691 164.517 523.005 164.517ZM519.556 155.148C519.556 156.298 520.054 157.218 521.05 157.907C522.047 158.559 523.369 158.884 525.016 158.884C526.319 158.884 527.526 158.731 528.638 158.425C529.749 158.08 530.745 157.582 531.626 156.93V152.562C530.668 152.179 529.672 151.891 528.638 151.7C527.603 151.508 526.492 151.412 525.304 151.412C523.503 151.412 522.085 151.757 521.05 152.447C520.054 153.098 519.556 153.999 519.556 155.148ZM559.198 164.402C556.362 164.402 553.795 163.713 551.496 162.333C549.197 160.954 547.357 159.114 545.978 156.815C544.637 154.478 543.966 151.872 543.966 148.998C543.966 146.124 544.637 143.538 545.978 141.239C547.357 138.901 549.216 137.062 551.553 135.721C553.891 134.342 556.515 133.652 559.428 133.652C560.922 133.652 562.359 133.863 563.738 134.284C565.118 134.667 566.401 135.242 567.589 136.008V123.766L575.464 122.444V164H567.704V161.528C565.252 163.444 562.416 164.402 559.198 164.402ZM560.462 157.677C561.918 157.677 563.24 157.428 564.428 156.93C565.654 156.432 566.708 155.723 567.589 154.804V143.136C566.708 142.254 565.654 141.565 564.428 141.066C563.202 140.568 561.88 140.319 560.462 140.319C558.814 140.319 557.32 140.702 555.979 141.469C554.676 142.197 553.641 143.231 552.875 144.573C552.109 145.875 551.726 147.351 551.726 148.998C551.726 150.646 552.109 152.121 552.875 153.424C553.641 154.727 554.676 155.761 555.979 156.528C557.32 157.294 558.814 157.677 560.462 157.677ZM591.203 164.517C589.057 164.517 587.161 164.134 585.513 163.368C583.865 162.563 582.582 161.471 581.662 160.091C580.742 158.712 580.282 157.122 580.282 155.321C580.282 152.447 581.355 150.224 583.501 148.653C585.685 147.044 588.674 146.239 592.468 146.239C595.073 146.239 597.526 146.642 599.825 147.446V145.262C599.825 143.538 599.288 142.235 598.215 141.354C597.143 140.472 595.571 140.032 593.502 140.032C592.238 140.032 590.877 140.243 589.421 140.664C587.965 141.047 586.279 141.66 584.363 142.503L581.489 136.698C583.865 135.625 586.126 134.821 588.272 134.284C590.456 133.748 592.64 133.479 594.824 133.479C598.848 133.479 601.971 134.456 604.193 136.411C606.454 138.327 607.584 141.047 607.584 144.573V164H599.825V161.873C598.599 162.793 597.277 163.463 595.859 163.885C594.441 164.306 592.889 164.517 591.203 164.517ZM587.755 155.148C587.755 156.298 588.253 157.218 589.249 157.907C590.245 158.559 591.567 158.884 593.215 158.884C594.518 158.884 595.725 158.731 596.836 158.425C597.947 158.08 598.943 157.582 599.825 156.93V152.562C598.867 152.179 597.871 151.891 596.836 151.7C595.801 151.508 594.69 151.412 593.502 151.412C591.701 151.412 590.284 151.757 589.249 152.447C588.253 153.098 587.755 153.999 587.755 155.148Z" fill="white"/>
</g>
<defs>
<clipPath id="clip0_1_294">
<rect width="612" height="199.826" fill="white"/>
</clipPath>
</defs>
</svg>
