<svg width="220" height="200" viewBox="0 0 220 200" fill="none" xmlns="http://www.w3.org/2000/svg">
<path d="M182.8 105.307L131.022 99.9456C108.149 97.5769 85.0893 97.6211 62.2249 100.077L13.5372 105.307L0 99.285C0 99.285 49.0838 88.7578 98.1676 88.7578C147.251 88.7578 196.335 99.285 196.335 99.285L182.8 105.307Z" fill="#3C92B9"/>
<path d="M145.329 7.19925C136.166 69.5195 98.8757 124.174 44.1895 155.434L43.1195 156.045L63.4192 164.816C93.9804 178.019 129.231 174.202 156.256 154.761C173.656 142.245 185.889 123.808 190.66 102.912C196.783 76.09 188.308 48.0272 168.361 29.0788L145.329 7.19925Z" fill="#294C11"/>
<path d="M135.861 42.2179C124.723 78.9442 102.545 111.35 72.3426 135.028L53.3308 149.934L71.2155 157.293C98.141 168.372 128.907 164.496 152.243 147.084L155.425 144.709C168.398 135.029 177.392 120.947 180.719 105.105L181.327 102.209C186.378 78.1598 177.971 53.2645 159.374 37.2002L141.948 22.1465L135.861 42.2179Z" fill="#EB280C"/>
<path d="M142.431 42.3984C143.587 40.0821 144.209 39.4314 144.173 39.4377C144.134 39.4446 144.178 38.1546 145.572 40.4197C145.786 40.7686 145.923 41.0148 146.143 41.2725C146.839 42.0871 147.022 43.2214 146.619 44.2136C146.215 45.2058 145.293 45.8905 144.226 45.9888L143.978 46.0117C143.186 46.0848 142.425 45.6796 142.044 44.9808C141.663 44.282 141.733 43.4233 142.224 42.7963C142.315 42.6797 142.314 42.6321 142.431 42.3984Z" fill="#272120"/>
<path d="M119.94 138.708C121.096 136.391 121.718 135.741 121.682 135.747C121.643 135.754 121.687 134.464 123.081 136.729C123.296 137.078 123.433 137.324 123.653 137.582C124.348 138.396 124.531 139.531 124.128 140.523C123.725 141.515 122.802 142.2 121.735 142.298L121.488 142.321C120.695 142.394 119.935 141.989 119.553 141.29C119.172 140.591 119.243 139.733 119.733 139.106C119.824 138.989 119.823 138.941 119.94 138.708Z" fill="#272120"/>
<path d="M155.507 68.7386C156.663 66.4223 157.285 65.7717 157.248 65.778C157.209 65.7849 157.254 64.4949 158.648 66.76C158.862 67.1089 158.999 67.3551 159.219 67.6128C159.915 68.4274 160.098 69.5617 159.695 70.5539C159.291 71.5461 158.368 72.2307 157.302 72.3291L157.054 72.352C156.262 72.4251 155.501 72.0199 155.12 71.3211C154.739 70.6223 154.809 69.7636 155.3 69.1366C155.391 69.02 155.39 68.9724 155.507 68.7386Z" fill="#272120"/>
<path d="M127.496 87.0268C128.652 84.7105 129.274 84.0598 129.238 84.0662C129.199 84.073 129.243 82.783 130.637 85.0481C130.852 85.397 130.988 85.6432 131.208 85.9009C131.904 86.7155 132.087 87.8498 131.684 88.842C131.28 89.8342 130.358 90.5189 129.291 90.6172L129.044 90.6401C128.251 90.7132 127.491 90.308 127.109 89.6092C126.728 88.9104 126.799 88.0518 127.289 87.4247C127.38 87.3081 127.379 87.2605 127.496 87.0268Z" fill="#272120"/>
<path d="M163.603 92.5281C164.759 90.2118 165.381 89.5611 165.345 89.5675C165.306 89.5744 165.35 88.2844 166.744 90.5495C166.958 90.8984 167.095 91.1446 167.315 91.4023C168.011 92.2169 168.194 93.3512 167.791 94.3434C167.387 95.3356 166.465 96.0202 165.398 96.1186L165.151 96.1414C164.358 96.2146 163.598 95.8094 163.216 95.1106C162.835 94.4118 162.906 93.5531 163.396 92.9261C163.487 92.8095 163.486 92.7619 163.603 92.5281Z" fill="#272120"/>
<path d="M144.091 104.348C145.247 102.031 145.869 101.381 145.833 101.387C145.794 101.394 145.838 100.104 147.232 102.369C147.447 102.718 147.584 102.964 147.804 103.222C148.499 104.036 148.682 105.171 148.279 106.163C147.876 107.155 146.953 107.84 145.886 107.938L145.639 107.961C144.846 108.034 144.086 107.629 143.704 106.93C143.323 106.231 143.394 105.373 143.884 104.745C143.975 104.629 143.974 104.581 144.091 104.348Z" fill="#272120"/>
<path d="M136.909 63.6188C138.066 61.3025 138.687 60.6518 138.651 60.6582C138.612 60.665 138.657 59.375 140.05 61.6401C140.265 61.989 140.402 62.2352 140.622 62.4929C141.317 63.3075 141.501 64.4418 141.097 65.434C140.694 66.4262 139.771 67.1109 138.705 67.2093L138.457 67.2321C137.664 67.3052 136.904 66.9001 136.523 66.2012C136.142 65.5024 136.212 64.6438 136.703 64.0167C136.794 63.9001 136.793 63.8525 136.909 63.6188Z" fill="#272120"/>
<path d="M113.734 113.149C114.89 110.833 115.512 110.182 115.476 110.189C115.437 110.195 115.481 108.905 116.875 111.171C117.09 111.519 117.227 111.766 117.447 112.023C118.142 112.838 118.325 113.972 117.922 114.964C117.519 115.957 116.596 116.641 115.529 116.74L115.282 116.762C114.489 116.836 113.729 116.43 113.348 115.732C112.966 115.033 113.037 114.174 113.527 113.547C113.619 113.431 113.618 113.383 113.734 113.149Z" fill="#272120"/>
<path d="M145.948 129.797C147.104 127.481 147.726 126.83 147.69 126.836C147.651 126.843 147.695 125.553 149.089 127.818C149.303 128.167 149.44 128.414 149.66 128.671C150.356 129.486 150.539 130.62 150.136 131.612C149.732 132.605 148.81 133.289 147.743 133.388L147.496 133.41C146.703 133.484 145.942 133.078 145.561 132.38C145.18 131.681 145.251 130.822 145.741 130.195C145.832 130.078 145.831 130.031 145.948 129.797Z" fill="#272120"/>
<path d="M89.5042 143.199C90.6602 140.882 91.2821 140.232 91.246 140.238C91.2071 140.245 91.2513 138.955 92.6451 141.22C92.8598 141.569 92.9967 141.815 93.2167 142.073C93.9121 142.887 94.0955 144.022 93.6921 145.014C93.2888 146.006 92.366 146.691 91.2995 146.789L91.0519 146.812C90.2592 146.885 89.4989 146.48 89.1176 145.781C88.7363 145.082 88.8069 144.224 89.2974 143.596C89.3886 143.48 89.3875 143.432 89.5042 143.199Z" fill="#272120"/>
<path d="M45.1772 68.1656L42.7533 59.9321C40.588 52.5776 33.8373 47.5278 26.1706 47.5278H17.3553L20.4046 51.3039C24.001 55.7572 28.4735 59.4245 33.5452 62.0785L45.1772 68.1656Z" fill="#178601"/>
<path d="M46.0854 68.9931L46.4741 60.419C46.8212 52.7602 42.0823 45.7877 34.8333 43.2917L26.4982 40.4217L28.1521 44.9848C30.1026 50.3664 33.1376 55.29 37.0689 59.4506L46.0854 68.9931Z" fill="#178601"/>
<path d="M14.3149 71.634C19.2864 66.3328 26.8576 64.3527 33.7879 66.5412L41.0675 68.8401C45.8903 70.3631 51.1073 70.0367 55.7028 67.9246C62.0299 65.0165 69.5265 66.846 73.8028 72.3417L74.5676 73.3246C80.2211 80.5902 81.901 90.1875 79.0515 98.9414L73.9875 114.499L72.1622 123.017C70.8107 129.324 65.3516 133.91 58.9059 134.153C57.6987 134.198 57.3798 134.085 55.2686 133.74C51.8217 133.177 45.8293 133.662 41.7258 133.74C38.0924 133.809 35.358 133.806 32.2217 133.782C28.562 133.755 25.0181 132.497 22.1603 130.211L12.8284 122.745L6.92928 102.463C3.77078 91.6035 6.57857 79.8834 14.3149 71.634Z" fill="#E92500"/>
<path d="M94.1291 75.4621C118.666 75.4621 138.58 95.3763 138.58 119.913C138.58 144.451 118.666 164.365 94.1291 164.365C69.5919 164.365 49.6777 144.451 49.6777 119.913C49.6777 95.3763 69.5919 75.4621 94.1291 75.4621Z" fill="#FFA00D"/>
<path d="M91.4036 74.7137L93.8276 66.4802C95.9928 59.1256 102.744 54.0758 110.41 54.0758H119.226L116.176 57.8519C112.58 62.3052 108.107 65.9725 103.036 68.6265L91.4036 74.7137Z" fill="#178601"/>
<path d="M90.4954 75.5411L90.1067 66.967C89.7596 59.3082 94.4985 52.3358 101.747 49.8397L110.083 46.9697L108.429 51.5328C106.478 56.9144 103.443 61.838 99.5119 65.9986L90.4954 75.5411Z" fill="#178601"/>
<path d="M195.922 117.081C195.922 146.95 175.776 173.061 146.884 180.639L140.438 182.329C111.458 189.93 80.989 189.777 52.0867 181.886L48.472 180.899C20.2104 173.182 0.643677 147.461 0.749195 118.165C0.772603 111.665 0.62945 98.4712 0.41575 98.4712C0.0429084 98.4712 47.6449 120.048 96.2031 120.048C145.576 120.048 195.922 98.4712 195.922 98.4712V117.081Z" fill="#3C92B9"/>
</svg>
