<svg width="1600" height="1501" viewBox="0 0 1600 1501" fill="none" xmlns="http://www.w3.org/2000/svg">
<path d="M556.042 311.619L582.924 338.501L620.146 359.18L644.96 367.451L783.507 400.537L826.933 421.216L860.019 448.098L878.629 470.845L917.919 530.813L959.276 594.917L946.869 605.256L942.733 613.528L940.666 644.546L924.123 650.749L915.851 675.564L888.969 723.125L882.765 741.736V768.618L835.204 776.889L810.39 787.229L791.779 809.975L769.032 865.808L696.657 876.147L678.046 874.079L671.842 876.147L667.707 884.419L661.503 878.215L653.232 872.011L661.503 843.061V824.45H651.164L647.028 820.315L642.892 816.179L624.281 830.654L607.738 797.568L593.263 793.432L584.992 785.161L582.924 768.618V745.871L576.72 741.736L562.245 737.6L549.838 727.261L541.567 725.193L537.431 718.989L539.499 673.496L527.092 665.224L522.956 638.342L514.684 632.138H485.734L477.463 628.003L475.395 613.528L477.463 609.392L485.734 588.713L504.345 576.306L510.549 551.492L514.684 543.22V530.813L518.82 516.338L510.549 487.388V466.709L520.888 456.37L529.159 448.098L551.906 439.827L556.042 435.691L562.245 412.944L558.11 390.198L547.77 381.926L553.974 357.112L547.77 340.569V319.89L553.974 307.483L556.042 311.619Z" fill="#62C0C0"/>
<path d="M992.383 851.465L917.94 1213.34V1236.09L922.076 1260.9H917.94L922.076 1271.24L926.212 1287.79L942.754 1316.74L932.415 1331.21L924.144 1335.35L911.736 1353.96L903.465 1349.82H899.329L882.786 1362.23L864.175 1389.11L851.768 1422.2L829.022 1430.47L810.411 1432.54H781.461L775.257 1436.67L756.646 1424.27L742.171 1438.74L729.764 1442.88V1451.15H727.696L698.746 1438.74L694.61 1432.54L667.728 1415.99L651.185 1403.59L642.913 1397.38L632.574 1405.65L618.099 1422.2L611.895 1411.86H595.352L582.945 1403.59V1395.32L580.877 1389.11L572.606 1387.04L549.859 1389.11L541.588 1380.84L514.705 1389.11L496.095 1401.52H494.027L485.755 1397.38L463.009 1360.16H442.33L425.787 1362.23L423.719 1360.16L417.516 1349.82L409.244 1341.55L407.176 1327.08L400.973 1325.01L384.43 1322.94L355.479 1333.28L332.733 1325.01L297.579 1331.21L219 1312.6L225.204 1306.4L239.679 1298.13L256.222 1289.85L396.837 1250.56L452.669 1215.41L522.977 1138.9L541.588 1124.42L547.791 1122.36L553.995 1109.95L566.402 1103.75V1093.41L576.741 1083.07H580.877L582.945 1074.8H587.081L591.217 1060.32L595.352 1058.25L626.37 1060.32L665.66 1056.18L696.678 1035.51L698.746 1031.37L713.221 1016.9L721.492 1014.83L742.171 998.284L750.443 990.013V985.877L754.578 977.605L771.121 956.927L760.782 925.909L740.103 907.298L696.678 903.162L680.135 890.755L684.271 886.619L665.66 874.212H688.406L760.782 863.873L783.528 805.972L802.139 783.226L826.954 772.886L874.515 764.615V737.733L880.718 719.122L907.601 671.561L915.872 648.814L932.415 640.543L934.483 609.525L938.619 601.253L951.026 590.914L965.501 621.932L992.383 746.004L996.519 793.565L992.383 851.465Z" fill="#62C0C0"/>
<path d="M787.733 115.172L793.936 131.715L820.819 154.461V171.004L818.751 191.683L820.819 202.022L827.022 210.294L864.244 235.108L862.176 241.312L884.923 255.787L913.873 233.04L936.619 222.701L940.755 214.43L951.094 189.615L990.384 156.529L1000.72 139.986L1029.67 137.918L1044.15 148.258L1087.57 150.326L1073.1 173.072L1056.56 216.497L1040.01 235.108L1044.15 249.583L1027.61 278.534L1166.15 392.266L1176.49 381.927L1203.37 379.859L1217.85 373.656L1224.05 363.316L1240.6 336.434L1255.07 328.162L1290.23 311.619L1306.77 305.416H1315.04L1362.6 313.687L1372.94 309.552L1381.21 301.28L1377.08 319.891L1364.67 336.434V346.773L1354.33 365.384L1335.72 379.859L1333.65 390.199L1335.72 398.47L1352.26 410.877L1364.67 441.895L1362.6 452.235L1343.99 493.592V512.203L1341.92 522.542L1346.06 539.085L1352.26 555.628L1356.4 565.968L1362.6 594.918L1360.53 615.596L1350.19 630.072L1337.79 638.343L1325.38 654.886L1302.63 661.09L1273.68 677.633L1263.34 698.311L1240.6 725.194L1230.26 733.465L1217.85 737.601L1205.44 758.279L1211.65 776.89L1195.1 787.23L1188.9 795.501L1184.76 807.908L1188.9 820.316L1186.83 826.519L1170.29 869.944L1180.63 886.487L1174.42 900.962L1151.68 917.505L1131 940.252L1108.25 948.524L1099.98 956.795L1075.17 969.202L1058.62 991.949L1037.94 1004.36L1031.74 1012.63L1029.67 1027.1L1019.33 1047.78L1023.47 1053.98L1019.33 1066.39L1008.99 1068.46L996.588 1082.94H986.248L977.977 1091.21L971.773 1089.14L967.637 1093.27L963.502 1091.21L951.094 1101.55L949.027 1111.89V1130.5L944.891 1138.77L940.755 1161.51L932.484 1178.06L930.416 1194.6L932.484 1248.36L924.212 1258.7L920.076 1264.91L918.008 1240.09V1217.35L922.144 1186.33L992.452 845.13L994.52 797.569L990.384 750.008L963.502 625.936L951.094 601.121L936.619 574.239L868.38 470.845L849.769 448.099L816.683 421.217L773.258 400.538L634.71 367.452L609.896 359.18L572.674 338.502L545.792 311.619L554.063 295.077L572.674 286.805L578.878 280.601L583.014 261.991L601.624 237.176L605.76 197.887V148.258L614.032 102.765V84.1538L626.439 77.9502L632.642 80.0181L649.185 96.561L669.864 115.172L676.068 102.765L688.475 96.561L696.746 88.2895L713.289 80.0181L715.357 67.6108L756.715 49L769.122 59.3394L767.054 61.4072L769.122 84.1538L787.733 115.172Z" fill="#62C0C0"/>
<path fill-rule="evenodd" clip-rule="evenodd" d="M558.902 1296.87L558.908 1296.87C559.288 1297.03 559.5 1297 559.5 1297C559.5 1297 559.712 1297.03 560.094 1296.87L560.098 1296.87L560.109 1296.86L560.144 1296.85C560.327 1296.77 560.508 1296.68 560.686 1296.59C561.045 1296.41 561.546 1296.13 562.146 1295.77C563.342 1295.05 564.933 1293.95 566.532 1292.45C569.725 1289.45 573 1284.75 573 1278.17C573 1276.44 572.651 1274.73 571.972 1273.13C571.294 1271.53 570.3 1270.08 569.046 1268.86C567.792 1267.64 566.304 1266.66 564.666 1266C563.028 1265.34 561.273 1265 559.5 1265C557.727 1265 555.972 1265.34 554.334 1266C552.696 1266.66 551.208 1267.64 549.954 1268.86C548.7 1270.08 547.706 1271.53 547.028 1273.13C546.349 1274.73 546 1276.44 546 1278.17C546 1284.75 549.275 1289.45 552.47 1292.45C553.808 1293.7 555.278 1294.82 556.854 1295.77C557.465 1296.14 558.093 1296.48 558.736 1296.79L558.856 1296.85L558.891 1296.86L558.902 1296.87ZM559.5 1282.41C560.651 1282.41 561.755 1281.96 562.568 1281.17C563.382 1280.38 563.839 1279.3 563.839 1278.17C563.839 1277.05 563.382 1275.97 562.568 1275.18C561.755 1274.39 560.651 1273.94 559.5 1273.94C558.349 1273.94 557.245 1274.39 556.432 1275.18C555.618 1275.97 555.161 1277.05 555.161 1278.17C555.161 1279.3 555.618 1280.38 556.432 1281.17C557.245 1281.96 558.349 1282.41 559.5 1282.41Z" fill="#FF6600"/>
<path fill-rule="evenodd" clip-rule="evenodd" d="M886.902 656.87L886.908 656.872C887.288 657.034 887.5 656.996 887.5 656.996C887.5 656.996 887.712 657.034 888.094 656.872L888.098 656.87L888.109 656.864L888.144 656.849C888.327 656.766 888.508 656.679 888.686 656.586C889.045 656.405 889.546 656.134 890.146 655.771C891.342 655.048 892.933 653.953 894.532 652.449C897.725 649.445 901 644.749 901 638.175C901 636.445 900.651 634.732 899.972 633.133C899.294 631.535 898.3 630.082 897.046 628.859C895.792 627.635 894.304 626.665 892.666 626.003C891.028 625.341 889.273 625 887.5 625C885.727 625 883.972 625.341 882.334 626.003C880.696 626.665 879.208 627.635 877.954 628.859C876.7 630.082 875.706 631.535 875.028 633.133C874.349 634.732 874 636.445 874 638.175C874 644.747 877.275 649.445 880.47 652.449C881.808 653.703 883.278 654.817 884.854 655.771C885.465 656.141 886.093 656.483 886.736 656.795L886.856 656.849L886.891 656.864L886.902 656.87ZM887.5 642.41C888.651 642.41 889.755 641.964 890.568 641.169C891.382 640.375 891.839 639.298 891.839 638.175C891.839 637.052 891.382 635.975 890.568 635.18C889.755 634.386 888.651 633.94 887.5 633.94C886.349 633.94 885.245 634.386 884.432 635.18C883.618 635.975 883.161 637.052 883.161 638.175C883.161 639.298 883.618 640.375 884.432 641.169C885.245 641.964 886.349 642.41 887.5 642.41Z" fill="#FF6600"/>
<path fill-rule="evenodd" clip-rule="evenodd" d="M859.902 1208.87L859.908 1208.87C860.288 1209.03 860.5 1209 860.5 1209C860.5 1209 860.712 1209.03 861.094 1208.87L861.098 1208.87L861.109 1208.86L861.144 1208.85C861.327 1208.77 861.508 1208.68 861.686 1208.59C862.045 1208.41 862.546 1208.13 863.146 1207.77C864.342 1207.05 865.933 1205.95 867.532 1204.45C870.725 1201.45 874 1196.75 874 1190.17C874 1188.44 873.651 1186.73 872.972 1185.13C872.294 1183.53 871.3 1182.08 870.046 1180.86C868.792 1179.64 867.304 1178.66 865.666 1178C864.028 1177.34 862.273 1177 860.5 1177C858.727 1177 856.972 1177.34 855.334 1178C853.696 1178.66 852.208 1179.64 850.954 1180.86C849.7 1182.08 848.706 1183.53 848.028 1185.13C847.349 1186.73 847 1188.44 847 1190.17C847 1196.75 850.275 1201.45 853.47 1204.45C854.808 1205.7 856.278 1206.82 857.854 1207.77C858.465 1208.14 859.093 1208.48 859.736 1208.79L859.856 1208.85L859.891 1208.86L859.902 1208.87ZM860.5 1194.41C861.651 1194.41 862.755 1193.96 863.568 1193.17C864.382 1192.38 864.839 1191.3 864.839 1190.17C864.839 1189.05 864.382 1187.97 863.568 1187.18C862.755 1186.39 861.651 1185.94 860.5 1185.94C859.349 1185.94 858.245 1186.39 857.432 1187.18C856.618 1187.97 856.161 1189.05 856.161 1190.17C856.161 1191.3 856.618 1192.38 857.432 1193.17C858.245 1193.96 859.349 1194.41 860.5 1194.41Z" fill="#FF6600"/>
<path fill-rule="evenodd" clip-rule="evenodd" d="M675.902 1176.87L675.908 1176.87C676.288 1177.03 676.5 1177 676.5 1177C676.5 1177 676.712 1177.03 677.094 1176.87L677.098 1176.87L677.109 1176.86L677.144 1176.85C677.327 1176.77 677.508 1176.68 677.686 1176.59C678.045 1176.41 678.546 1176.13 679.146 1175.77C680.342 1175.05 681.933 1173.95 683.532 1172.45C686.725 1169.45 690 1164.75 690 1158.17C690 1156.44 689.651 1154.73 688.972 1153.13C688.294 1151.53 687.3 1150.08 686.046 1148.86C684.792 1147.64 683.304 1146.66 681.666 1146C680.028 1145.34 678.273 1145 676.5 1145C674.727 1145 672.972 1145.34 671.334 1146C669.696 1146.66 668.208 1147.64 666.954 1148.86C665.7 1150.08 664.706 1151.53 664.028 1153.13C663.349 1154.73 663 1156.44 663 1158.17C663 1164.75 666.275 1169.45 669.47 1172.45C670.808 1173.7 672.278 1174.82 673.854 1175.77C674.465 1176.14 675.093 1176.48 675.736 1176.79L675.856 1176.85L675.891 1176.86L675.902 1176.87ZM676.5 1162.41C677.651 1162.41 678.755 1161.96 679.568 1161.17C680.382 1160.38 680.839 1159.3 680.839 1158.17C680.839 1157.05 680.382 1155.97 679.568 1155.18C678.755 1154.39 677.651 1153.94 676.5 1153.94C675.349 1153.94 674.245 1154.39 673.432 1155.18C672.618 1155.97 672.161 1157.05 672.161 1158.17C672.161 1159.3 672.618 1160.38 673.432 1161.17C674.245 1161.96 675.349 1162.41 676.5 1162.41Z" fill="#FF6600"/>
<path fill-rule="evenodd" clip-rule="evenodd" d="M826.902 1076.87L826.908 1076.87C827.288 1077.03 827.5 1077 827.5 1077C827.5 1077 827.712 1077.03 828.094 1076.87L828.098 1076.87L828.109 1076.86L828.144 1076.85C828.327 1076.77 828.508 1076.68 828.686 1076.59C829.045 1076.41 829.546 1076.13 830.146 1075.77C831.342 1075.05 832.933 1073.95 834.532 1072.45C837.725 1069.45 841 1064.75 841 1058.17C841 1056.44 840.651 1054.73 839.972 1053.13C839.294 1051.53 838.3 1050.08 837.046 1048.86C835.792 1047.64 834.304 1046.66 832.666 1046C831.028 1045.34 829.273 1045 827.5 1045C825.727 1045 823.972 1045.34 822.334 1046C820.696 1046.66 819.208 1047.64 817.954 1048.86C816.7 1050.08 815.706 1051.53 815.028 1053.13C814.349 1054.73 814 1056.44 814 1058.17C814 1064.75 817.275 1069.45 820.47 1072.45C821.808 1073.7 823.278 1074.82 824.854 1075.77C825.465 1076.14 826.093 1076.48 826.736 1076.79L826.856 1076.85L826.891 1076.86L826.902 1076.87ZM827.5 1062.41C828.651 1062.41 829.755 1061.96 830.568 1061.17C831.382 1060.38 831.839 1059.3 831.839 1058.17C831.839 1057.05 831.382 1055.97 830.568 1055.18C829.755 1054.39 828.651 1053.94 827.5 1053.94C826.349 1053.94 825.245 1054.39 824.432 1055.18C823.618 1055.97 823.161 1057.05 823.161 1058.17C823.161 1059.3 823.618 1060.38 824.432 1061.17C825.245 1061.96 826.349 1062.41 827.5 1062.41Z" fill="#FF6600"/>
<path fill-rule="evenodd" clip-rule="evenodd" d="M949.902 928.87L949.908 928.872C950.288 929.034 950.5 928.996 950.5 928.996C950.5 928.996 950.712 929.034 951.094 928.872L951.098 928.87L951.109 928.864L951.144 928.849C951.327 928.766 951.508 928.679 951.686 928.586C952.045 928.405 952.546 928.134 953.146 927.771C954.342 927.048 955.933 925.953 957.532 924.449C960.725 921.445 964 916.749 964 910.175C964 908.445 963.651 906.732 962.972 905.133C962.294 903.535 961.3 902.082 960.046 900.859C958.792 899.635 957.304 898.665 955.666 898.003C954.028 897.341 952.273 897 950.5 897C948.727 897 946.972 897.341 945.334 898.003C943.696 898.665 942.208 899.635 940.954 900.859C939.7 902.082 938.706 903.535 938.028 905.133C937.349 906.732 937 908.445 937 910.175C937 916.747 940.275 921.445 943.47 924.449C944.808 925.703 946.278 926.817 947.854 927.771C948.465 928.141 949.093 928.483 949.736 928.795L949.856 928.849L949.891 928.864L949.902 928.87ZM950.5 914.41C951.651 914.41 952.755 913.964 953.568 913.169C954.382 912.375 954.839 911.298 954.839 910.175C954.839 909.052 954.382 907.975 953.568 907.18C952.755 906.386 951.651 905.94 950.5 905.94C949.349 905.94 948.245 906.386 947.432 907.18C946.618 907.975 946.161 909.052 946.161 910.175C946.161 911.298 946.618 912.375 947.432 913.169C948.245 913.964 949.349 914.41 950.5 914.41Z" fill="#FF6600"/>
<path fill-rule="evenodd" clip-rule="evenodd" d="M839.902 872.87L839.908 872.872C840.288 873.034 840.5 872.996 840.5 872.996C840.5 872.996 840.712 873.034 841.094 872.872L841.098 872.87L841.109 872.864L841.144 872.849C841.327 872.766 841.508 872.679 841.686 872.586C842.045 872.405 842.546 872.134 843.146 871.771C844.342 871.048 845.933 869.953 847.532 868.449C850.725 865.445 854 860.749 854 854.175C854 852.445 853.651 850.732 852.972 849.133C852.294 847.535 851.3 846.082 850.046 844.859C848.792 843.635 847.304 842.665 845.666 842.003C844.028 841.341 842.273 841 840.5 841C838.727 841 836.972 841.341 835.334 842.003C833.696 842.665 832.208 843.635 830.954 844.859C829.7 846.082 828.706 847.535 828.028 849.133C827.349 850.732 827 852.445 827 854.175C827 860.747 830.275 865.445 833.47 868.449C834.808 869.703 836.278 870.817 837.854 871.771C838.465 872.141 839.093 872.483 839.736 872.795L839.856 872.849L839.891 872.864L839.902 872.87ZM840.5 858.41C841.651 858.41 842.755 857.964 843.568 857.169C844.382 856.375 844.839 855.298 844.839 854.175C844.839 853.052 844.382 851.975 843.568 851.18C842.755 850.386 841.651 849.94 840.5 849.94C839.349 849.94 838.245 850.386 837.432 851.18C836.618 851.975 836.161 853.052 836.161 854.175C836.161 855.298 836.618 856.375 837.432 857.169C838.245 857.964 839.349 858.41 840.5 858.41Z" fill="#FF6600"/>
<path fill-rule="evenodd" clip-rule="evenodd" d="M1170.9 606.87L1170.91 606.872C1171.29 607.034 1171.5 606.996 1171.5 606.996C1171.5 606.996 1171.71 607.034 1172.09 606.872L1172.1 606.87L1172.11 606.864L1172.14 606.849C1172.33 606.766 1172.51 606.679 1172.69 606.586C1173.04 606.405 1173.55 606.134 1174.15 605.771C1175.34 605.048 1176.93 603.953 1178.53 602.449C1181.73 599.445 1185 594.749 1185 588.175C1185 586.445 1184.65 584.732 1183.97 583.133C1183.29 581.535 1182.3 580.082 1181.05 578.859C1179.79 577.635 1178.3 576.665 1176.67 576.003C1175.03 575.341 1173.27 575 1171.5 575C1169.73 575 1167.97 575.341 1166.33 576.003C1164.7 576.665 1163.21 577.635 1161.95 578.859C1160.7 580.082 1159.71 581.535 1159.03 583.133C1158.35 584.732 1158 586.445 1158 588.175C1158 594.747 1161.27 599.445 1164.47 602.449C1165.81 603.703 1167.28 604.817 1168.85 605.771C1169.46 606.141 1170.09 606.483 1170.74 606.795L1170.86 606.849L1170.89 606.864L1170.9 606.87ZM1171.5 592.41C1172.65 592.41 1173.75 591.964 1174.57 591.169C1175.38 590.375 1175.84 589.298 1175.84 588.175C1175.84 587.052 1175.38 585.975 1174.57 585.18C1173.75 584.386 1172.65 583.94 1171.5 583.94C1170.35 583.94 1169.25 584.386 1168.43 585.18C1167.62 585.975 1167.16 587.052 1167.16 588.175C1167.16 589.298 1167.62 590.375 1168.43 591.169C1169.25 591.964 1170.35 592.41 1171.5 592.41Z" fill="#FF6600"/>
<path fill-rule="evenodd" clip-rule="evenodd" d="M1009.9 749.87L1009.91 749.872C1010.29 750.034 1010.5 749.996 1010.5 749.996C1010.5 749.996 1010.71 750.034 1011.09 749.872L1011.1 749.87L1011.11 749.864L1011.14 749.849C1011.33 749.766 1011.51 749.679 1011.69 749.586C1012.04 749.405 1012.55 749.134 1013.15 748.771C1014.34 748.048 1015.93 746.953 1017.53 745.449C1020.73 742.445 1024 737.749 1024 731.175C1024 729.445 1023.65 727.732 1022.97 726.133C1022.29 724.535 1021.3 723.082 1020.05 721.859C1018.79 720.635 1017.3 719.665 1015.67 719.003C1014.03 718.341 1012.27 718 1010.5 718C1008.73 718 1006.97 718.341 1005.33 719.003C1003.7 719.665 1002.21 720.635 1000.95 721.859C999.7 723.082 998.706 724.535 998.028 726.133C997.349 727.732 997 729.445 997 731.175C997 737.747 1000.27 742.445 1003.47 745.449C1004.81 746.703 1006.28 747.817 1007.85 748.771C1008.46 749.141 1009.09 749.483 1009.74 749.795L1009.86 749.849L1009.89 749.864L1009.9 749.87ZM1010.5 735.41C1011.65 735.41 1012.75 734.964 1013.57 734.169C1014.38 733.375 1014.84 732.298 1014.84 731.175C1014.84 730.052 1014.38 728.975 1013.57 728.18C1012.75 727.386 1011.65 726.94 1010.5 726.94C1009.35 726.94 1008.25 727.386 1007.43 728.18C1006.62 728.975 1006.16 730.052 1006.16 731.175C1006.16 732.298 1006.62 733.375 1007.43 734.169C1008.25 734.964 1009.35 735.41 1010.5 735.41Z" fill="#FF6600"/>
<path fill-rule="evenodd" clip-rule="evenodd" d="M949.902 638.87L949.908 638.872C950.288 639.034 950.5 638.996 950.5 638.996C950.5 638.996 950.712 639.034 951.094 638.872L951.098 638.87L951.109 638.864L951.144 638.849C951.327 638.766 951.508 638.679 951.686 638.586C952.045 638.405 952.546 638.134 953.146 637.771C954.342 637.048 955.933 635.953 957.532 634.449C960.725 631.445 964 626.749 964 620.175C964 618.445 963.651 616.732 962.972 615.133C962.294 613.535 961.3 612.082 960.046 610.859C958.792 609.635 957.304 608.665 955.666 608.003C954.028 607.341 952.273 607 950.5 607C948.727 607 946.972 607.341 945.334 608.003C943.696 608.665 942.208 609.635 940.954 610.859C939.7 612.082 938.706 613.535 938.028 615.133C937.349 616.732 937 618.445 937 620.175C937 626.747 940.275 631.445 943.47 634.449C944.808 635.703 946.278 636.817 947.854 637.771C948.465 638.141 949.093 638.483 949.736 638.795L949.856 638.849L949.891 638.864L949.902 638.87ZM950.5 624.41C951.651 624.41 952.755 623.964 953.568 623.169C954.382 622.375 954.839 621.298 954.839 620.175C954.839 619.052 954.382 617.975 953.568 617.18C952.755 616.386 951.651 615.94 950.5 615.94C949.349 615.94 948.245 616.386 947.432 617.18C946.618 617.975 946.161 619.052 946.161 620.175C946.161 621.298 946.618 622.375 947.432 623.169C948.245 623.964 949.349 624.41 950.5 624.41Z" fill="#FF6600"/>
<path fill-rule="evenodd" clip-rule="evenodd" d="M649.902 525.87L649.908 525.872C650.288 526.034 650.5 525.996 650.5 525.996C650.5 525.996 650.712 526.034 651.094 525.872L651.098 525.87L651.109 525.864L651.144 525.849C651.327 525.766 651.508 525.679 651.686 525.586C652.045 525.405 652.546 525.134 653.146 524.771C654.342 524.048 655.933 522.953 657.532 521.449C660.725 518.445 664 513.749 664 507.175C664 505.445 663.651 503.732 662.972 502.133C662.294 500.535 661.3 499.082 660.046 497.859C658.792 496.635 657.304 495.665 655.666 495.003C654.028 494.341 652.273 494 650.5 494C648.727 494 646.972 494.341 645.334 495.003C643.696 495.665 642.208 496.635 640.954 497.859C639.7 499.082 638.706 500.535 638.028 502.133C637.349 503.732 637 505.445 637 507.175C637 513.747 640.275 518.445 643.47 521.449C644.808 522.703 646.278 523.817 647.854 524.771C648.465 525.141 649.093 525.483 649.736 525.795L649.856 525.849L649.891 525.864L649.902 525.87ZM650.5 511.41C651.651 511.41 652.755 510.964 653.568 510.169C654.382 509.375 654.839 508.298 654.839 507.175C654.839 506.052 654.382 504.975 653.568 504.18C652.755 503.386 651.651 502.94 650.5 502.94C649.349 502.94 648.245 503.386 647.432 504.18C646.618 504.975 646.161 506.052 646.161 507.175C646.161 508.298 646.618 509.375 647.432 510.169C648.245 510.964 649.349 511.41 650.5 511.41Z" fill="#FF6600"/>
<path fill-rule="evenodd" clip-rule="evenodd" d="M1102.9 557.87L1102.91 557.872C1103.29 558.034 1103.5 557.996 1103.5 557.996C1103.5 557.996 1103.71 558.034 1104.09 557.872L1104.1 557.87L1104.11 557.864L1104.14 557.849C1104.33 557.766 1104.51 557.679 1104.69 557.586C1105.04 557.405 1105.55 557.134 1106.15 556.771C1107.34 556.048 1108.93 554.953 1110.53 553.449C1113.73 550.445 1117 545.749 1117 539.175C1117 537.445 1116.65 535.732 1115.97 534.133C1115.29 532.535 1114.3 531.082 1113.05 529.859C1111.79 528.635 1110.3 527.665 1108.67 527.003C1107.03 526.341 1105.27 526 1103.5 526C1101.73 526 1099.97 526.341 1098.33 527.003C1096.7 527.665 1095.21 528.635 1093.95 529.859C1092.7 531.082 1091.71 532.535 1091.03 534.133C1090.35 535.732 1090 537.445 1090 539.175C1090 545.747 1093.27 550.445 1096.47 553.449C1097.81 554.703 1099.28 555.817 1100.85 556.771C1101.46 557.141 1102.09 557.483 1102.74 557.795L1102.86 557.849L1102.89 557.864L1102.9 557.87ZM1103.5 543.41C1104.65 543.41 1105.75 542.964 1106.57 542.169C1107.38 541.375 1107.84 540.298 1107.84 539.175C1107.84 538.052 1107.38 536.975 1106.57 536.18C1105.75 535.386 1104.65 534.94 1103.5 534.94C1102.35 534.94 1101.25 535.386 1100.43 536.18C1099.62 536.975 1099.16 538.052 1099.16 539.175C1099.16 540.298 1099.62 541.375 1100.43 542.169C1101.25 542.964 1102.35 543.41 1103.5 543.41Z" fill="#FF6600"/>
<path fill-rule="evenodd" clip-rule="evenodd" d="M1102.9 464.87L1102.91 464.872C1103.29 465.034 1103.5 464.996 1103.5 464.996C1103.5 464.996 1103.71 465.034 1104.09 464.872L1104.1 464.87L1104.11 464.864L1104.14 464.849C1104.33 464.766 1104.51 464.679 1104.69 464.586C1105.04 464.405 1105.55 464.134 1106.15 463.771C1107.34 463.048 1108.93 461.953 1110.53 460.449C1113.73 457.445 1117 452.749 1117 446.175C1117 444.445 1116.65 442.732 1115.97 441.133C1115.29 439.535 1114.3 438.082 1113.05 436.859C1111.79 435.635 1110.3 434.665 1108.67 434.003C1107.03 433.341 1105.27 433 1103.5 433C1101.73 433 1099.97 433.341 1098.33 434.003C1096.7 434.665 1095.21 435.635 1093.95 436.859C1092.7 438.082 1091.71 439.535 1091.03 441.133C1090.35 442.732 1090 444.445 1090 446.175C1090 452.747 1093.27 457.445 1096.47 460.449C1097.81 461.703 1099.28 462.817 1100.85 463.771C1101.46 464.141 1102.09 464.483 1102.74 464.795L1102.86 464.849L1102.89 464.864L1102.9 464.87ZM1103.5 450.41C1104.65 450.41 1105.75 449.964 1106.57 449.169C1107.38 448.375 1107.84 447.298 1107.84 446.175C1107.84 445.052 1107.38 443.975 1106.57 443.18C1105.75 442.386 1104.65 441.94 1103.5 441.94C1102.35 441.94 1101.25 442.386 1100.43 443.18C1099.62 443.975 1099.16 445.052 1099.16 446.175C1099.16 447.298 1099.62 448.375 1100.43 449.169C1101.25 449.964 1102.35 450.41 1103.5 450.41Z" fill="#FF6600"/>
<path fill-rule="evenodd" clip-rule="evenodd" d="M826.902 496.87L826.908 496.872C827.288 497.034 827.5 496.996 827.5 496.996C827.5 496.996 827.712 497.034 828.094 496.872L828.098 496.87L828.109 496.864L828.144 496.849C828.327 496.766 828.508 496.679 828.686 496.586C829.045 496.405 829.546 496.134 830.146 495.771C831.342 495.048 832.933 493.953 834.532 492.449C837.725 489.445 841 484.749 841 478.175C841 476.445 840.651 474.732 839.972 473.133C839.294 471.535 838.3 470.082 837.046 468.859C835.792 467.635 834.304 466.665 832.666 466.003C831.028 465.341 829.273 465 827.5 465C825.727 465 823.972 465.341 822.334 466.003C820.696 466.665 819.208 467.635 817.954 468.859C816.7 470.082 815.706 471.535 815.028 473.133C814.349 474.732 814 476.445 814 478.175C814 484.747 817.275 489.445 820.47 492.449C821.808 493.703 823.278 494.817 824.854 495.771C825.465 496.141 826.093 496.483 826.736 496.795L826.856 496.849L826.891 496.864L826.902 496.87ZM827.5 482.41C828.651 482.41 829.755 481.964 830.568 481.169C831.382 480.375 831.839 479.298 831.839 478.175C831.839 477.052 831.382 475.975 830.568 475.18C829.755 474.386 828.651 473.94 827.5 473.94C826.349 473.94 825.245 474.386 824.432 475.18C823.618 475.975 823.161 477.052 823.161 478.175C823.161 479.298 823.618 480.375 824.432 481.169C825.245 481.964 826.349 482.41 827.5 482.41Z" fill="#FF6600"/>
<path fill-rule="evenodd" clip-rule="evenodd" d="M729.902 306.87L729.908 306.872C730.288 307.034 730.5 306.996 730.5 306.996C730.5 306.996 730.712 307.034 731.094 306.872L731.098 306.87L731.109 306.864L731.144 306.849C731.327 306.766 731.508 306.679 731.686 306.586C732.045 306.405 732.546 306.134 733.146 305.771C734.342 305.048 735.933 303.953 737.532 302.449C740.725 299.445 744 294.749 744 288.175C744 286.445 743.651 284.732 742.972 283.133C742.294 281.535 741.3 280.082 740.046 278.859C738.792 277.635 737.304 276.665 735.666 276.003C734.028 275.341 732.273 275 730.5 275C728.727 275 726.972 275.341 725.334 276.003C723.696 276.665 722.208 277.635 720.954 278.859C719.7 280.082 718.706 281.535 718.028 283.133C717.349 284.732 717 286.445 717 288.175C717 294.747 720.275 299.445 723.47 302.449C724.808 303.703 726.278 304.817 727.854 305.771C728.465 306.141 729.093 306.483 729.736 306.795L729.856 306.849L729.891 306.864L729.902 306.87ZM730.5 292.41C731.651 292.41 732.755 291.964 733.568 291.169C734.382 290.375 734.839 289.298 734.839 288.175C734.839 287.052 734.382 285.975 733.568 285.18C732.755 284.386 731.651 283.94 730.5 283.94C729.349 283.94 728.245 284.386 727.432 285.18C726.618 285.975 726.161 287.052 726.161 288.175C726.161 289.298 726.618 290.375 727.432 291.169C728.245 291.964 729.349 292.41 730.5 292.41Z" fill="#FF6600"/>
<path fill-rule="evenodd" clip-rule="evenodd" d="M662.902 688.87L662.908 688.872C663.288 689.034 663.5 688.996 663.5 688.996C663.5 688.996 663.712 689.034 664.094 688.872L664.098 688.87L664.109 688.864L664.144 688.849C664.327 688.766 664.508 688.679 664.686 688.586C665.045 688.405 665.546 688.134 666.146 687.771C667.342 687.048 668.933 685.953 670.532 684.449C673.725 681.445 677 676.749 677 670.175C677 668.445 676.651 666.732 675.972 665.133C675.294 663.535 674.3 662.082 673.046 660.859C671.792 659.635 670.304 658.665 668.666 658.003C667.028 657.341 665.273 657 663.5 657C661.727 657 659.972 657.341 658.334 658.003C656.696 658.665 655.208 659.635 653.954 660.859C652.7 662.082 651.706 663.535 651.028 665.133C650.349 666.732 650 668.445 650 670.175C650 676.747 653.275 681.445 656.47 684.449C657.808 685.703 659.278 686.817 660.854 687.771C661.465 688.141 662.093 688.483 662.736 688.795L662.856 688.849L662.891 688.864L662.902 688.87ZM663.5 674.41C664.651 674.41 665.755 673.964 666.568 673.169C667.382 672.375 667.839 671.298 667.839 670.175C667.839 669.052 667.382 667.975 666.568 667.18C665.755 666.386 664.651 665.94 663.5 665.94C662.349 665.94 661.245 666.386 660.432 667.18C659.618 667.975 659.161 669.052 659.161 670.175C659.161 671.298 659.618 672.375 660.432 673.169C661.245 673.964 662.349 674.41 663.5 674.41Z" fill="#FF6600"/>
</svg>
