<svg id="visual" viewBox="0 0 900 600" width="900" height="600" xmlns="http://www.w3.org/2000/svg" xmlns:xlink="http://www.w3.org/1999/xlink" version="1.1"><path d="M0 29L4.8 29.7C9.7 30.3 19.3 31.7 29 31.8C38.7 32 48.3 31 58 31.2C67.7 31.3 77.3 32.7 87 31.2C96.7 29.7 106.3 25.3 116 25C125.7 24.7 135.3 28.3 145 29C154.7 29.7 164.3 27.3 174 28.3C183.7 29.3 193.3 33.7 203 33.5C212.7 33.3 222.3 28.7 232 25.8C241.7 23 251.3 22 261 22.8C270.7 23.7 280.3 26.3 290 26.7C299.7 27 309.3 25 319 24.7C328.7 24.3 338.3 25.7 348 25.5C357.7 25.3 367.3 23.7 377 22.7C386.7 21.7 396.3 21.3 406 21.3C415.7 21.3 425.3 21.7 435.2 23.7C445 25.7 455 29.3 464.8 30.2C474.7 31 484.3 29 494 29.3C503.7 29.7 513.3 32.3 523 34.2C532.7 36 542.3 37 552 35.2C561.7 33.3 571.3 28.7 581 25.7C590.7 22.7 600.3 21.3 610 21.7C619.7 22 629.3 24 639 26C648.7 28 658.3 30 668 30.2C677.7 30.3 687.3 28.7 697 27.7C706.7 26.7 716.3 26.3 726 26.7C735.7 27 745.3 28 755 28.5C764.7 29 774.3 29 784 28C793.7 27 803.3 25 813 24.3C822.7 23.7 832.3 24.3 842 25.3C851.7 26.3 861.3 27.7 871 28.5C880.7 29.3 890.3 29.7 895.2 29.8L900 30L900 0L895.2 0C890.3 0 880.7 0 871 0C861.3 0 851.7 0 842 0C832.3 0 822.7 0 813 0C803.3 0 793.7 0 784 0C774.3 0 764.7 0 755 0C745.3 0 735.7 0 726 0C716.3 0 706.7 0 697 0C687.3 0 677.7 0 668 0C658.3 0 648.7 0 639 0C629.3 0 619.7 0 610 0C600.3 0 590.7 0 581 0C571.3 0 561.7 0 552 0C542.3 0 532.7 0 523 0C513.3 0 503.7 0 494 0C484.3 0 474.7 0 464.8 0C455 0 445 0 435.2 0C425.3 0 415.7 0 406 0C396.3 0 386.7 0 377 0C367.3 0 357.7 0 348 0C338.3 0 328.7 0 319 0C309.3 0 299.7 0 290 0C280.3 0 270.7 0 261 0C251.3 0 241.7 0 232 0C222.3 0 212.7 0 203 0C193.3 0 183.7 0 174 0C164.3 0 154.7 0 145 0C135.3 0 125.7 0 116 0C106.3 0 96.7 0 87 0C77.3 0 67.7 0 58 0C48.3 0 38.7 0 29 0C19.3 0 9.7 0 4.8 0L0 0Z" fill="#FEEAC2" stroke-linecap="round" stroke-linejoin="miter"></path></svg>